# Exported from ProBuilder
# http://www.procore3d.com/probuilder
# 9/29/2018 5:39:49 PM

mtllib ./bookshelf.mtl
o bookshelf

g pb-MergedObject-1992470
v 0.6752181 1.166869 0.3086643
v -0.6722193 1.166869 0.3086643
v 0.6752181 1.221139 0.3086643
v -0.6722193 1.221139 0.3086643
v -0.6722193 1.166869 0.3086643
v -0.6722193 1.166869 -0.3539591
v -0.6722193 1.221139 0.3086643
v -0.6722193 1.221139 -0.3539591
v -0.6722193 1.166869 -0.3539591
v 0.6752181 1.166869 -0.3539591
v -0.6722193 1.221139 -0.3539591
v 0.6752181 1.221139 -0.3539591
v 0.6752181 1.166869 -0.3539591
v 0.6752181 1.166869 0.3086643
v 0.6752181 1.221139 -0.3539591
v 0.6752181 1.221139 0.3086643
v 0.6752181 1.221139 0.3086643
v -0.6722193 1.221139 0.3086643
v 0.6752181 1.221139 -0.3539591
v -0.6722193 1.221139 -0.3539591
v 0.6752181 1.166869 -0.3539591
v -0.6722193 1.166869 -0.3539591
v 0.6752181 1.166869 0.3086643
v -0.6722193 1.166869 0.3086643
v 0.6687708 -1.531996 -0.306941
v -0.692461 -1.531996 -0.306941
v 0.6687708 1.5242 -0.306941
v -0.692461 1.5242 -0.306941
v -0.692461 -1.531996 -0.306941
v -0.692461 -1.531996 -0.3539591
v -0.692461 1.5242 -0.306941
v -0.692461 1.5242 -0.3539591
v -0.692461 -1.531996 -0.3539591
v 0.6687708 -1.531996 -0.3539591
v -0.692461 1.5242 -0.3539591
v 0.6687708 1.5242 -0.3539591
v 0.6687708 -1.531996 -0.3539591
v 0.6687708 -1.531996 -0.306941
v 0.6687708 1.5242 -0.3539591
v 0.6687708 1.5242 -0.306941
v 0.6687708 1.5242 -0.306941
v -0.692461 1.5242 -0.306941
v 0.6687708 1.5242 -0.3539591
v -0.692461 1.5242 -0.3539591
v 0.6687708 -1.531996 -0.3539591
v -0.692461 -1.531996 -0.3539591
v 0.6687708 -1.531996 -0.306941
v -0.692461 -1.531996 -0.306941
v 0.6752181 -0.5631316 0.3086643
v -0.6722193 -0.5631316 0.3086643
v 0.6752181 -0.5088608 0.3086643
v -0.6722193 -0.5088608 0.3086643
v -0.6722193 -0.5631316 0.3086643
v -0.6722193 -0.5631316 -0.3539591
v -0.6722193 -0.5088608 0.3086643
v -0.6722193 -0.5088608 -0.3539591
v -0.6722193 -0.5631316 -0.3539591
v 0.6752181 -0.5631316 -0.3539591
v -0.6722193 -0.5088608 -0.3539591
v 0.6752181 -0.5088608 -0.3539591
v 0.6752181 -0.5631316 -0.3539591
v 0.6752181 -0.5631316 0.3086643
v 0.6752181 -0.5088608 -0.3539591
v 0.6752181 -0.5088608 0.3086643
v 0.6752181 -0.5088608 0.3086643
v -0.6722193 -0.5088608 0.3086643
v 0.6752181 -0.5088608 -0.3539591
v -0.6722193 -0.5088608 -0.3539591
v 0.6752181 -0.5631316 -0.3539591
v -0.6722193 -0.5631316 -0.3539591
v 0.6752181 -0.5631316 0.3086643
v -0.6722193 -0.5631316 0.3086643
v 0.6752181 1.48043 0.3539591
v -0.6722193 1.48043 0.3539591
v 0.6752181 1.531996 0.3539591
v -0.6722193 1.531996 0.3539591
v -0.6722193 1.48043 0.3539591
v -0.6722193 1.48043 -0.3539591
v -0.6722193 1.531996 0.3539591
v -0.6722193 1.531996 -0.3539591
v -0.6722193 1.48043 -0.3539591
v 0.6752181 1.48043 -0.3539591
v -0.6722193 1.531996 -0.3539591
v 0.6752181 1.531996 -0.3539591
v 0.6752181 1.48043 -0.3539591
v 0.6752181 1.48043 0.3539591
v 0.6752181 1.531996 -0.3539591
v 0.6752181 1.531996 0.3539591
v 0.6752181 1.531996 0.3539591
v -0.6722193 1.531996 0.3539591
v 0.6752181 1.531996 -0.3539591
v -0.6722193 1.531996 -0.3539591
v 0.6752181 1.48043 -0.3539591
v -0.6722193 1.48043 -0.3539591
v 0.6752181 1.48043 0.3539591
v -0.6722193 1.48043 0.3539591
v 0.6752181 -1.531996 0.3086643
v -0.6722193 -1.531996 0.3086643
v 0.6752181 -1.323781 0.3086643
v -0.6722193 -1.323781 0.3086643
v -0.6722193 -1.531996 0.3086643
v -0.6722193 -1.531996 -0.3539591
v -0.6722193 -1.323781 0.3086643
v -0.6722193 -1.323781 -0.3539591
v -0.6722193 -1.531996 -0.3539591
v 0.6752181 -1.531996 -0.3539591
v -0.6722193 -1.323781 -0.3539591
v 0.6752181 -1.323781 -0.3539591
v 0.6752181 -1.531996 -0.3539591
v 0.6752181 -1.531996 0.3086643
v 0.6752181 -1.323781 -0.3539591
v 0.6752181 -1.323781 0.3086643
v 0.6752181 -1.323781 0.3086643
v -0.6722193 -1.323781 0.3086643
v 0.6752181 -1.323781 -0.3539591
v -0.6722193 -1.323781 -0.3539591
v 0.6752181 -1.531996 -0.3539591
v -0.6722193 -1.531996 -0.3539591
v 0.6752181 -1.531996 0.3086643
v -0.6722193 -1.531996 0.3086643
v 0.6752181 -1.34257 0.3539591
v -0.6722193 -1.34257 0.3539591
v 0.6752181 -1.291004 0.3539591
v -0.6722193 -1.291004 0.3539591
v -0.6722193 -1.34257 0.3539591
v -0.6722193 -1.34257 -0.3539591
v -0.6722193 -1.291004 0.3539591
v -0.6722193 -1.291004 -0.3539591
v -0.6722193 -1.34257 -0.3539591
v 0.6752181 -1.34257 -0.3539591
v -0.6722193 -1.291004 -0.3539591
v 0.6752181 -1.291004 -0.3539591
v 0.6752181 -1.34257 -0.3539591
v 0.6752181 -1.34257 0.3539591
v 0.6752181 -1.291004 -0.3539591
v 0.6752181 -1.291004 0.3539591
v 0.6752181 -1.291004 0.3539591
v -0.6722193 -1.291004 0.3539591
v 0.6752181 -1.291004 -0.3539591
v -0.6722193 -1.291004 -0.3539591
v 0.6752181 -1.34257 -0.3539591
v -0.6722193 -1.34257 -0.3539591
v 0.6752181 -1.34257 0.3539591
v -0.6722193 -1.34257 0.3539591
v -0.6455393 -1.531996 0.3370066
v -0.731461 -1.531996 0.3370066
v -0.6455393 1.5242 0.3370066
v -0.731461 1.5242 0.3370066
v -0.731461 -1.531996 0.3370066
v -0.731461 -1.531996 -0.3539591
v -0.731461 1.5242 0.3370066
v -0.731461 1.5242 -0.3539591
v -0.731461 -1.531996 -0.3539591
v -0.6455393 -1.531996 -0.3539591
v -0.731461 1.5242 -0.3539591
v -0.6455393 1.5242 -0.3539591
v -0.6455393 -1.531996 -0.3539591
v -0.6455393 -1.531996 0.3370066
v -0.6455393 1.5242 -0.3539591
v -0.6455393 1.5242 0.3370066
v -0.6455393 1.5242 0.3370066
v -0.731461 1.5242 0.3370066
v -0.6455393 1.5242 -0.3539591
v -0.731461 1.5242 -0.3539591
v -0.6455393 -1.531996 -0.3539591
v -0.731461 -1.531996 -0.3539591
v -0.6455393 -1.531996 0.3370066
v -0.731461 -1.531996 0.3370066
v 0.6752181 0.6398683 0.3086643
v -0.6722193 0.6398683 0.3086643
v 0.6752181 0.694139 0.3086643
v -0.6722193 0.694139 0.3086643
v -0.6722193 0.6398683 0.3086643
v -0.6722193 0.6398683 -0.3539591
v -0.6722193 0.694139 0.3086643
v -0.6722193 0.694139 -0.3539591
v -0.6722193 0.6398683 -0.3539591
v 0.6752181 0.6398683 -0.3539591
v -0.6722193 0.694139 -0.3539591
v 0.6752181 0.694139 -0.3539591
v 0.6752181 0.6398683 -0.3539591
v 0.6752181 0.6398683 0.3086643
v 0.6752181 0.694139 -0.3539591
v 0.6752181 0.694139 0.3086643
v 0.6752181 0.694139 0.3086643
v -0.6722193 0.694139 0.3086643
v 0.6752181 0.694139 -0.3539591
v -0.6722193 0.694139 -0.3539591
v 0.6752181 0.6398683 -0.3539591
v -0.6722193 0.6398683 -0.3539591
v 0.6752181 0.6398683 0.3086643
v -0.6722193 0.6398683 0.3086643
v 0.6752181 0.02286851 0.3086643
v -0.6722193 0.02286851 0.3086643
v 0.6752181 0.07713926 0.3086643
v -0.6722193 0.07713926 0.3086643
v -0.6722193 0.02286851 0.3086643
v -0.6722193 0.02286851 -0.3539591
v -0.6722193 0.07713926 0.3086643
v -0.6722193 0.07713926 -0.3539591
v -0.6722193 0.02286851 -0.3539591
v 0.6752181 0.02286851 -0.3539591
v -0.6722193 0.07713926 -0.3539591
v 0.6752181 0.07713926 -0.3539591
v 0.6752181 0.02286851 -0.3539591
v 0.6752181 0.02286851 0.3086643
v 0.6752181 0.07713926 -0.3539591
v 0.6752181 0.07713926 0.3086643
v 0.6752181 0.07713926 0.3086643
v -0.6722193 0.07713926 0.3086643
v 0.6752181 0.07713926 -0.3539591
v -0.6722193 0.07713926 -0.3539591
v 0.6752181 0.02286851 -0.3539591
v -0.6722193 0.02286851 -0.3539591
v 0.6752181 0.02286851 0.3086643
v -0.6722193 0.02286851 0.3086643
v 0.7314606 -1.531996 0.3370066
v 0.6455388 -1.531996 0.3370066
v 0.7314606 1.5242 0.3370066
v 0.6455388 1.5242 0.3370066
v 0.6455388 -1.531996 0.3370066
v 0.6455388 -1.531996 -0.3539591
v 0.6455388 1.5242 0.3370066
v 0.6455388 1.5242 -0.3539591
v 0.6455388 -1.531996 -0.3539591
v 0.7314606 -1.531996 -0.3539591
v 0.6455388 1.5242 -0.3539591
v 0.7314606 1.5242 -0.3539591
v 0.7314606 -1.531996 -0.3539591
v 0.7314606 -1.531996 0.3370066
v 0.7314606 1.5242 -0.3539591
v 0.7314606 1.5242 0.3370066
v 0.7314606 1.5242 0.3370066
v 0.6455388 1.5242 0.3370066
v 0.7314606 1.5242 -0.3539591
v 0.6455388 1.5242 -0.3539591
v 0.7314606 -1.531996 -0.3539591
v 0.6455388 -1.531996 -0.3539591
v 0.7314606 -1.531996 0.3370066
v 0.6455388 -1.531996 0.3370066

vn 0 0 1
vn 0 0 1
vn 0 0 1
vn 0 0 1
vn -1 0 0
vn -1 0 0
vn -1 0 0
vn -1 0 0
vn 0 0 -1
vn 0 0 -1
vn 0 0 -1
vn 0 0 -1
vn 1 0 0
vn 1 0 0
vn 1 0 0
vn 1 0 0
vn 0 1 0
vn 0 1 0
vn 0 1 0
vn 0 1 0
vn 0 -1 0
vn 0 -1 0
vn 0 -1 0
vn 0 -1 0
vn 0 0 1
vn 0 0 1
vn 0 0 1
vn 0 0 1
vn -1 0 0
vn -1 0 0
vn -1 0 0
vn -1 0 0
vn 0 0 -1
vn 0 0 -1
vn 0 0 -1
vn 0 0 -1
vn 1 0 0
vn 1 0 0
vn 1 0 0
vn 1 0 0
vn 0 1 0
vn 0 1 0
vn 0 1 0
vn 0 1 0
vn 0 -1 0
vn 0 -1 0
vn 0 -1 0
vn 0 -1 0
vn 0 0 1
vn 0 0 1
vn 0 0 1
vn 0 0 1
vn -1 0 0
vn -1 0 0
vn -1 0 0
vn -1 0 0
vn 0 0 -1
vn 0 0 -1
vn 0 0 -1
vn 0 0 -1
vn 1 0 0
vn 1 0 0
vn 1 0 0
vn 1 0 0
vn 0 1 0
vn 0 1 0
vn 0 1 0
vn 0 1 0
vn 0 -1 0
vn 0 -1 0
vn 0 -1 0
vn 0 -1 0
vn 0 0 1
vn 0 0 1
vn 0 0 1
vn 0 0 1
vn -1 0 0
vn -1 0 0
vn -1 0 0
vn -1 0 0
vn 0 0 -1
vn 0 0 -1
vn 0 0 -1
vn 0 0 -1
vn 1 0 0
vn 1 0 0
vn 1 0 0
vn 1 0 0
vn 0 1 0
vn 0 1 0
vn 0 1 0
vn 0 1 0
vn 0 -1 0
vn 0 -1 0
vn 0 -1 0
vn 0 -1 0
vn 0 0 1
vn 0 0 1
vn 0 0 1
vn 0 0 1
vn -1 0 0
vn -1 0 0
vn -1 0 0
vn -1 0 0
vn 0 0 -1
vn 0 0 -1
vn 0 0 -1
vn 0 0 -1
vn 1 0 0
vn 1 0 0
vn 1 0 0
vn 1 0 0
vn 0 1 0
vn 0 1 0
vn 0 1 0
vn 0 1 0
vn 0 -1 0
vn 0 -1 0
vn 0 -1 0
vn 0 -1 0
vn 0 0 1
vn 0 0 1
vn 0 0 1
vn 0 0 1
vn -1 0 0
vn -1 0 0
vn -1 0 0
vn -1 0 0
vn 0 0 -1
vn 0 0 -1
vn 0 0 -1
vn 0 0 -1
vn 1 0 0
vn 1 0 0
vn 1 0 0
vn 1 0 0
vn 0 1 0
vn 0 1 0
vn 0 1 0
vn 0 1 0
vn 0 -1 0
vn 0 -1 0
vn 0 -1 0
vn 0 -1 0
vn 0 0 1
vn 0 0 1
vn 0 0 1
vn 0 0 1
vn -1 0 0
vn -1 0 0
vn -1 0 0
vn -1 0 0
vn 0 0 -1
vn 0 0 -1
vn 0 0 -1
vn 0 0 -1
vn 1 0 0
vn 1 0 0
vn 1 0 0
vn 1 0 0
vn 0 1 0
vn 0 1 0
vn 0 1 0
vn 0 1 0
vn 0 -1 0
vn 0 -1 0
vn 0 -1 0
vn 0 -1 0
vn 0 0 1
vn 0 0 1
vn 0 0 1
vn 0 0 1
vn -1 0 0
vn -1 0 0
vn -1 0 0
vn -1 0 0
vn 0 0 -1
vn 0 0 -1
vn 0 0 -1
vn 0 0 -1
vn 1 0 0
vn 1 0 0
vn 1 0 0
vn 1 0 0
vn 0 1 0
vn 0 1 0
vn 0 1 0
vn 0 1 0
vn 0 -1 0
vn 0 -1 0
vn 0 -1 0
vn 0 -1 0
vn 0 0 1
vn 0 0 1
vn 0 0 1
vn 0 0 1
vn -1 0 0
vn -1 0 0
vn -1 0 0
vn -1 0 0
vn 0 0 -1
vn 0 0 -1
vn 0 0 -1
vn 0 0 -1
vn 1 0 0
vn 1 0 0
vn 1 0 0
vn 1 0 0
vn 0 1 0
vn 0 1 0
vn 0 1 0
vn 0 1 0
vn 0 -1 0
vn 0 -1 0
vn 0 -1 0
vn 0 -1 0
vn 0 0 1
vn 0 0 1
vn 0 0 1
vn 0 0 1
vn -1 0 0
vn -1 0 0
vn -1 0 0
vn -1 0 0
vn 0 0 -1
vn 0 0 -1
vn 0 0 -1
vn 0 0 -1
vn 1 0 0
vn 1 0 0
vn 1 0 0
vn 1 0 0
vn 0 1 0
vn 0 1 0
vn 0 1 0
vn 0 1 0
vn 0 -1 0
vn 0 -1 0
vn 0 -1 0
vn 0 -1 0

vt 0.6737189 -0.02713525
vt -0.6737185 -0.02713525
vt 0.6737189 0.02713549
vt -0.6737185 0.02713549
vt 0.3313112 -0.02713525
vt -0.3313122 -0.02713525
vt 0.3313112 0.02713549
vt -0.3313122 0.02713549
vt 0.6737185 -0.02713525
vt -0.6737189 -0.02713525
vt 0.6737185 0.02713549
vt -0.6737189 0.02713549
vt 0.3313122 -0.02713525
vt -0.3313112 -0.02713525
vt 0.3313122 0.02713549
vt -0.3313112 0.02713549
vt -0.6737189 0.3313112
vt 0.6737185 0.3313112
vt -0.6737189 -0.3313122
vt 0.6737185 -0.3313122
vt 0.6737189 -0.3313122
vt -0.6737185 -0.3313122
vt 0.6737189 0.3313112
vt -0.6737185 0.3313112
vt 1.318271 -1.75
vt -0.04296064 -1.75
vt 1.318271 1.306196
vt -0.04296064 1.306196
vt -0.2984648 -1.75
vt -0.3454828 -1.75
vt -0.2984648 1.306196
vt -0.3454828 1.306196
vt 0.04296064 -1.75
vt -1.318271 -1.75
vt 0.04296064 1.306196
vt -1.318271 1.306196
vt 0.3454828 -1.75
vt 0.2984648 -1.75
vt 0.3454828 1.306196
vt 0.2984648 1.306196
vt -1.318271 -0.2984648
vt 0.04296064 -0.2984648
vt -1.318271 -0.3454828
vt 0.04296064 -0.3454828
vt 1.318271 -0.3454828
vt -0.04296064 -0.3454828
vt 1.318271 -0.2984648
vt -0.04296064 -0.2984648
vt 0.6737189 -0.02713525
vt -0.6737185 -0.02713525
vt 0.6737189 0.02713549
vt -0.6737185 0.02713549
vt 0.3313112 -0.02713525
vt -0.3313122 -0.02713525
vt 0.3313112 0.02713549
vt -0.3313122 0.02713549
vt 0.6737185 -0.02713525
vt -0.6737189 -0.02713525
vt 0.6737185 0.02713549
vt -0.6737189 0.02713549
vt 0.3313122 -0.02713525
vt -0.3313112 -0.02713525
vt 0.3313122 0.02713549
vt -0.3313112 0.02713549
vt -0.6737189 0.3313112
vt 0.6737185 0.3313112
vt -0.6737189 -0.3313122
vt 0.6737185 -0.3313122
vt 0.6737189 -0.3313122
vt -0.6737185 -0.3313122
vt 0.6737189 0.3313112
vt -0.6737185 0.3313112
vt 0.6737185 -0.1175736
vt -0.6737189 -0.1175736
vt 0.6737185 -0.06600749
vt -0.6737189 -0.06600749
vt 0.376606 -0.1175736
vt -0.3313122 -0.1175736
vt 0.376606 -0.06600749
vt -0.3313122 -0.06600749
vt 0.6737189 -0.1175736
vt -0.6737185 -0.1175736
vt 0.6737189 -0.06600749
vt -0.6737185 -0.06600749
vt 0.3313122 -0.1175736
vt -0.376606 -0.1175736
vt 0.3313122 -0.06600749
vt -0.376606 -0.06600749
vt -0.6737185 0.376606
vt 0.6737189 0.376606
vt -0.6737185 -0.3313122
vt 0.6737189 -0.3313122
vt 0.6737185 -0.3313122
vt -0.6737189 -0.3313122
vt 0.6737185 0.376606
vt -0.6737189 0.376606
vt 0.6737185 -0.1175736
vt -0.6737189 -0.1175736
vt 0.6737185 0.09064138
vt -0.6737189 0.09064138
vt 0.3313112 -0.1175736
vt -0.3313122 -0.1175736
vt 0.3313112 0.09064138
vt -0.3313122 0.09064138
vt 0.6737189 -0.1175736
vt -0.6737185 -0.1175736
vt 0.6737189 0.09064138
vt -0.6737185 0.09064138
vt 0.3313122 -0.1175736
vt -0.3313112 -0.1175736
vt 0.3313122 0.09064138
vt -0.3313112 0.09064138
vt -0.6737185 0.3313112
vt 0.6737189 0.3313112
vt -0.6737185 -0.3313122
vt 0.6737189 -0.3313122
vt 0.6737185 -0.3313122
vt -0.6737189 -0.3313122
vt 0.6737185 0.3313112
vt -0.6737189 0.3313112
vt 0.6737185 -0.1175736
vt -0.6737189 -0.1175736
vt 0.6737185 -0.06600749
vt -0.6737189 -0.06600749
vt 0.376606 -0.1175736
vt -0.3313122 -0.1175736
vt 0.376606 -0.06600749
vt -0.3313122 -0.06600749
vt 0.6737189 -0.1175736
vt -0.6737185 -0.1175736
vt 0.6737189 -0.06600749
vt -0.6737185 -0.06600749
vt 0.3313122 -0.1175736
vt -0.376606 -0.1175736
vt 0.3313122 -0.06600749
vt -0.376606 -0.06600749
vt -0.6737185 0.376606
vt 0.6737189 0.376606
vt -0.6737185 -0.3313122
vt 0.6737189 -0.3313122
vt 0.6737185 -0.3313122
vt -0.6737189 -0.3313122
vt 0.6737185 0.376606
vt -0.6737189 0.376606
vt 0.04296112 -1.75
vt -0.04296064 -1.75
vt 0.04296112 1.306196
vt -0.04296064 1.306196
vt 0.3454828 -1.75
vt -0.3454828 -1.75
vt 0.3454828 1.306196
vt -0.3454828 1.306196
vt 0.04296064 -1.75
vt -0.04296112 -1.75
vt 0.04296064 1.306196
vt -0.04296112 1.306196
vt 0.3454828 -1.75
vt -0.3454828 -1.75
vt 0.3454828 1.306196
vt -0.3454828 1.306196
vt -0.04296112 0.3454828
vt 0.04296064 0.3454828
vt -0.04296112 -0.3454828
vt 0.04296064 -0.3454828
vt 0.04296112 -0.3454828
vt -0.04296064 -0.3454828
vt 0.04296112 0.3454828
vt -0.04296064 0.3454828
vt 0.6737189 -0.02713525
vt -0.6737185 -0.02713525
vt 0.6737189 0.02713549
vt -0.6737185 0.02713549
vt 0.3313112 -0.02713525
vt -0.3313122 -0.02713525
vt 0.3313112 0.02713549
vt -0.3313122 0.02713549
vt 0.6737185 -0.02713525
vt -0.6737189 -0.02713525
vt 0.6737185 0.02713549
vt -0.6737189 0.02713549
vt 0.3313122 -0.02713525
vt -0.3313112 -0.02713525
vt 0.3313122 0.02713549
vt -0.3313112 0.02713549
vt -0.6737189 0.3313112
vt 0.6737185 0.3313112
vt -0.6737189 -0.3313122
vt 0.6737185 -0.3313122
vt 0.6737189 -0.3313122
vt -0.6737185 -0.3313122
vt 0.6737189 0.3313112
vt -0.6737185 0.3313112
vt 0.6737189 -0.02713525
vt -0.6737185 -0.02713525
vt 0.6737189 0.02713549
vt -0.6737185 0.02713549
vt 0.3313112 -0.02713525
vt -0.3313122 -0.02713525
vt 0.3313112 0.02713549
vt -0.3313122 0.02713549
vt 0.6737185 -0.02713525
vt -0.6737189 -0.02713525
vt 0.6737185 0.02713549
vt -0.6737189 0.02713549
vt 0.3313122 -0.02713525
vt -0.3313112 -0.02713525
vt 0.3313122 0.02713549
vt -0.3313112 0.02713549
vt -0.6737189 0.3313112
vt 0.6737185 0.3313112
vt -0.6737189 -0.3313122
vt 0.6737185 -0.3313122
vt 0.6737189 -0.3313122
vt -0.6737185 -0.3313122
vt 0.6737189 0.3313112
vt -0.6737185 0.3313112
vt 0.04296112 -1.75
vt -0.04296064 -1.75
vt 0.04296112 1.306196
vt -0.04296064 1.306196
vt 0.3454828 -1.75
vt -0.3454828 -1.75
vt 0.3454828 1.306196
vt -0.3454828 1.306196
vt 0.04296064 -1.75
vt -0.04296112 -1.75
vt 0.04296064 1.306196
vt -0.04296112 1.306196
vt 0.3454828 -1.75
vt -0.3454828 -1.75
vt 0.3454828 1.306196
vt -0.3454828 1.306196
vt -0.04296112 0.3454828
vt 0.04296064 0.3454828
vt -0.04296112 -0.3454828
vt 0.04296064 -0.3454828
vt 0.04296112 -0.3454828
vt -0.04296064 -0.3454828
vt 0.04296112 0.3454828
vt -0.04296064 0.3454828

g pb-MergedObject-1992470
usemtl Default_Prototype
f 3/3/3 4/4/4 2/2/2 1/1/1
f 7/7/7 8/8/8 6/6/6 5/5/5
f 11/11/11 12/12/12 10/10/10 9/9/9
f 15/15/15 16/16/16 14/14/14 13/13/13
f 19/19/19 20/20/20 18/18/18 17/17/17
f 23/23/23 24/24/24 22/22/22 21/21/21
f 27/27/27 28/28/28 26/26/26 25/25/25
f 31/31/31 32/32/32 30/30/30 29/29/29
f 35/35/35 36/36/36 34/34/34 33/33/33
f 39/39/39 40/40/40 38/38/38 37/37/37
f 43/43/43 44/44/44 42/42/42 41/41/41
f 47/47/47 48/48/48 46/46/46 45/45/45
f 51/51/51 52/52/52 50/50/50 49/49/49
f 55/55/55 56/56/56 54/54/54 53/53/53
f 59/59/59 60/60/60 58/58/58 57/57/57
f 63/63/63 64/64/64 62/62/62 61/61/61
f 67/67/67 68/68/68 66/66/66 65/65/65
f 71/71/71 72/72/72 70/70/70 69/69/69
f 75/75/75 76/76/76 74/74/74 73/73/73
f 79/79/79 80/80/80 78/78/78 77/77/77
f 83/83/83 84/84/84 82/82/82 81/81/81
f 87/87/87 88/88/88 86/86/86 85/85/85
f 91/91/91 92/92/92 90/90/90 89/89/89
f 95/95/95 96/96/96 94/94/94 93/93/93
f 99/99/99 100/100/100 98/98/98 97/97/97
f 103/103/103 104/104/104 102/102/102 101/101/101
f 107/107/107 108/108/108 106/106/106 105/105/105
f 111/111/111 112/112/112 110/110/110 109/109/109
f 115/115/115 116/116/116 114/114/114 113/113/113
f 119/119/119 120/120/120 118/118/118 117/117/117
f 123/123/123 124/124/124 122/122/122 121/121/121
f 127/127/127 128/128/128 126/126/126 125/125/125
f 131/131/131 132/132/132 130/130/130 129/129/129
f 135/135/135 136/136/136 134/134/134 133/133/133
f 139/139/139 140/140/140 138/138/138 137/137/137
f 143/143/143 144/144/144 142/142/142 141/141/141
f 147/147/147 148/148/148 146/146/146 145/145/145
f 151/151/151 152/152/152 150/150/150 149/149/149
f 155/155/155 156/156/156 154/154/154 153/153/153
f 159/159/159 160/160/160 158/158/158 157/157/157
f 163/163/163 164/164/164 162/162/162 161/161/161
f 167/167/167 168/168/168 166/166/166 165/165/165
f 171/171/171 172/172/172 170/170/170 169/169/169
f 175/175/175 176/176/176 174/174/174 173/173/173
f 179/179/179 180/180/180 178/178/178 177/177/177
f 183/183/183 184/184/184 182/182/182 181/181/181
f 187/187/187 188/188/188 186/186/186 185/185/185
f 191/191/191 192/192/192 190/190/190 189/189/189
f 195/195/195 196/196/196 194/194/194 193/193/193
f 199/199/199 200/200/200 198/198/198 197/197/197
f 203/203/203 204/204/204 202/202/202 201/201/201
f 207/207/207 208/208/208 206/206/206 205/205/205
f 211/211/211 212/212/212 210/210/210 209/209/209
f 215/215/215 216/216/216 214/214/214 213/213/213
f 219/219/219 220/220/220 218/218/218 217/217/217
f 223/223/223 224/224/224 222/222/222 221/221/221
f 227/227/227 228/228/228 226/226/226 225/225/225
f 231/231/231 232/232/232 230/230/230 229/229/229
f 235/235/235 236/236/236 234/234/234 233/233/233
f 239/239/239 240/240/240 238/238/238 237/237/237

