# Exported from ProBuilder
# http://www.procore3d.com/probuilder
# 9/29/2018 5:30:29 PM

mtllib ./entertainment_center.mtl
o entertainment center

g entertainment center
v -1.25 -0.4 -0.5000496
v 1.25 -0.4 -0.5000496
v -1.25 0.4 -0.5000496
v 1.25 0.4 -0.5000496
v 1.193624 -0.3583578 -0.4237025
v 2.384186E-07 -0.3583578 -0.4237025
v 2.384186E-07 -0.01788855 -0.4237025
v 1.193624 -0.01788855 -0.4237025
v 2.384186E-07 -0.3583578 -0.4237025
v -1.201115 -0.3583578 -0.4237025
v -1.201115 -0.01788855 -0.4237025
v 2.384186E-07 -0.01788855 -0.4237025
v -1.194563 0.02262744 -0.4237025
v -1.194563 0.3450888 -0.4237025
v 2.384186E-07 0.3450888 -0.4237025
v 2.384186E-07 0.02262744 -0.4237025
v 2.384186E-07 0.3450888 -0.4237025
v 1.205847 0.3450888 -0.4237025
v 1.205847 0.02262744 -0.4237025
v 2.384186E-07 0.02262744 -0.4237025
v -1.25 -0.4 0.4999504
v -1.25 -0.4 -0.5000496
v -1.25 0.4 -0.5000496
v -1.25 0.4 0.4999504
v -1.25 0 0.4999504
v 1.25 -0.4 -0.5000496
v 1.25 -0.4 0.4999504
v 1.25 0 0.4999504
v 1.25 0.4 0.4999504
v 1.25 0.4 -0.5000496
v 1.25 0.4 0.4999504
v 2.384186E-07 0.4 0.4999504
v -1.25 0.4 0.4999504
v -1.25 0.4 -0.5000496
v 1.25 0.4 -0.5000496
v 1.25 -0.4 -0.5000496
v -1.25 -0.4 -0.5000496
v -1.25 -0.4 0.4999504
v 2.384186E-07 -0.4 0.4999504
v 1.25 -0.4 0.4999504
v 2.384186E-07 0 0.4999504
v -1.25 0 0.4999504
v 2.384186E-07 0.02262744 0.5000504
v -1.194563 0.02262744 0.5000504
v -1.25 0 0.4999504
v -1.25 0.4 0.4999504
v -1.194563 0.02262744 0.5000504
v -1.194563 0.3450888 0.5000504
v 1.25 0.4 0.4999504
v 1.25 0 0.4999504
v 1.205847 0.3450888 0.5000504
v 1.205847 0.02262744 0.5000504
v -1.25 0.4 0.4999504
v 2.384186E-07 0.4 0.4999504
v -1.194563 0.3450888 0.5000504
v 2.384186E-07 0.3450888 0.5000504
v 1.25 0 0.4999504
v 2.384186E-07 0 0.4999504
v 1.205847 0.02262744 0.5000504
v 2.384186E-07 0.02262744 0.5000504
v 2.384186E-07 0.4 0.4999504
v 1.25 0.4 0.4999504
v 2.384186E-07 0.3450888 0.5000504
v 1.205847 0.3450888 0.5000504
v 1.25 -0.4 0.4999504
v 2.384186E-07 -0.4 0.4999504
v 1.193624 -0.3583578 0.5000504
v 2.384186E-07 -0.3583578 0.5000504
v -1.25 0 0.4999504
v 2.384186E-07 0 0.4999504
v -1.201115 -0.01788855 0.5000504
v 2.384186E-07 -0.01788855 0.5000504
v 1.25 0 0.4999504
v 1.25 -0.4 0.4999504
v 1.193624 -0.01788855 0.5000504
v 1.193624 -0.3583578 0.5000504
v 2.384186E-07 0 0.4999504
v 1.25 0 0.4999504
v 2.384186E-07 -0.01788855 0.5000504
v 1.193624 -0.01788855 0.5000504
v 2.384186E-07 -0.4 0.4999504
v -1.25 -0.4 0.4999504
v 2.384186E-07 -0.3583578 0.5000504
v -1.201115 -0.3583578 0.5000504
v -1.25 -0.4 0.4999504
v -1.25 0 0.4999504
v -1.201115 -0.3583578 0.5000504
v -1.201115 -0.01788855 0.5000504
v 2.384186E-07 0.02262744 0.5000504
v -1.194563 0.02262744 0.5000504
v 2.384186E-07 0.02262744 -0.4237025
v -1.194563 0.02262744 -0.4237025
v -1.194563 0.02262744 0.5000504
v -1.194563 0.3450888 0.5000504
v -1.194563 0.02262744 -0.4237025
v -1.194563 0.3450888 -0.4237025
v 1.205847 0.3450888 0.5000504
v 1.205847 0.02262744 0.5000504
v 1.205847 0.3450888 -0.4237025
v 1.205847 0.02262744 -0.4237025
v -1.194563 0.3450888 0.5000504
v 2.384186E-07 0.3450888 0.5000504
v -1.194563 0.3450888 -0.4237025
v 2.384186E-07 0.3450888 -0.4237025
v 1.205847 0.02262744 0.5000504
v 2.384186E-07 0.02262744 0.5000504
v 1.205847 0.02262744 -0.4237025
v 2.384186E-07 0.02262744 -0.4237025
v 2.384186E-07 0.3450888 0.5000504
v 1.205847 0.3450888 0.5000504
v 2.384186E-07 0.3450888 -0.4237025
v 1.205847 0.3450888 -0.4237025
v 1.193624 -0.3583578 0.5000504
v 2.384186E-07 -0.3583578 0.5000504
v 1.193624 -0.3583578 -0.4237025
v 2.384186E-07 -0.3583578 -0.4237025
v -1.201115 -0.01788855 0.5000504
v 2.384186E-07 -0.01788855 0.5000504
v -1.201115 -0.01788855 -0.4237025
v 2.384186E-07 -0.01788855 -0.4237025
v 1.193624 -0.01788855 0.5000504
v 1.193624 -0.3583578 0.5000504
v 1.193624 -0.01788855 -0.4237025
v 1.193624 -0.3583578 -0.4237025
v 2.384186E-07 -0.01788855 0.5000504
v 1.193624 -0.01788855 0.5000504
v 2.384186E-07 -0.01788855 -0.4237025
v 1.193624 -0.01788855 -0.4237025
v 2.384186E-07 -0.3583578 0.5000504
v -1.201115 -0.3583578 0.5000504
v 2.384186E-07 -0.3583578 -0.4237025
v -1.201115 -0.3583578 -0.4237025
v -1.201115 -0.3583578 0.5000504
v -1.201115 -0.01788855 0.5000504
v -1.201115 -0.3583578 -0.4237025
v -1.201115 -0.01788855 -0.4237025

vn 0 0 -1
vn 0 0 -1
vn 0 0 -1
vn 0 0 -1
vn 0 0 1
vn 0 0 1
vn 0 0 1
vn 0 0 1
vn 0 0 0.9999999
vn 0 0 0.9999999
vn 0 0 0.9999999
vn 0 0 0.9999999
vn 0 0 1
vn 0 0 1
vn 0 0 1
vn 0 0 1
vn 0 0 1
vn 0 0 1
vn 0 0 1
vn 0 0 1
vn -1 0 0
vn -1 0 0
vn -1 0 0
vn -1 0 0
vn -1 0 0
vn 1 0 0
vn 1 0 0
vn 1 0 0
vn 1 0 0
vn 1 0 0
vn 0 1 0
vn 0 1 0
vn 0 1 0
vn 0 1 0
vn 0 1 0
vn 0 -1 0
vn 0 -1 0
vn 0 -1 0
vn 0 -1 0
vn 0 -1 0
vn 0 -0.004420103 0.9999903
vn 0 -0.004420102 0.9999902
vn 0 -0.004420103 0.9999903
vn 0 -0.004420103 0.9999903
vn -0.001804158 0 0.9999984
vn -0.001804158 0 0.9999984
vn -0.001804158 0 0.9999983
vn -0.001804158 0 0.9999984
vn 0.002265204 0 0.9999974
vn 0.002265205 0 0.9999974
vn 0.002265204 0 0.9999974
vn 0.002265204 0 0.9999974
vn 0 0.001821422 0.9999983
vn 0 0.001821421 0.9999983
vn 0 0.001821421 0.9999983
vn 0 0.001821422 0.9999983
vn 0 -0.004420103 0.9999903
vn 0 -0.004420102 0.9999902
vn 0 -0.004420102 0.9999902
vn 0 -0.004420103 0.9999903
vn 0 0.001821421 0.9999984
vn 0 0.001821421 0.9999983
vn 0 0.001821421 0.9999983
vn 0 0.001821421 0.9999984
vn 0 -0.002401802 0.9999971
vn 0 -0.002401802 0.9999971
vn 0 -0.002401802 0.9999971
vn 0 -0.002401802 0.9999971
vn 0 0.00559101 0.9999844
vn 0 0.005591009 0.9999843
vn 0 0.005591009 0.9999844
vn 0 0.00559101 0.9999844
vn 0.001774093 0 0.9999984
vn 0.001774093 0 0.9999984
vn 0.001774093 0 0.9999985
vn 0.001774093 0 0.9999984
vn 0 0.00559101 0.9999844
vn 0 0.005591009 0.9999843
vn 0 0.00559101 0.9999844
vn 0 0.00559101 0.9999844
vn 0 -0.002401802 0.9999971
vn 0 -0.002401802 0.9999971
vn 0 -0.002401802 0.9999971
vn 0 -0.002401802 0.9999971
vn -0.002045968 0 0.9999979
vn -0.002045968 0 0.9999979
vn -0.002045968 0 0.9999979
vn -0.002045968 0 0.9999979
vn 0 1 0
vn 0 1 0
vn 0 1 0
vn 0 1 0
vn 1 0 0
vn 1 0 0
vn 1 0 0
vn 1 0 0
vn -1 0 0
vn -1 0 0
vn -1 0 0
vn -1 0 0
vn 0 -1 0
vn 0 -1 0
vn 0 -1 0
vn 0 -1 0
vn 0 1 0
vn 0 1 0
vn 0 1 0
vn 0 1 0
vn 0 -1 0
vn 0 -1 0
vn 0 -1 0
vn 0 -1 0
vn 0 1 0
vn 0 1 0
vn 0 1 0
vn 0 1 0
vn 0 -1 0
vn 0 -1 0
vn 0 -1 0
vn 0 -1 0
vn -1 0 0
vn -1 0 0
vn -1 0 0
vn -1 0 0
vn 0 -1 0
vn 0 -1 0
vn 0 -1 0
vn 0 -1 0
vn 0 1 0
vn 0 1 0
vn 0 1 0
vn 0 1 0
vn 1 0 0
vn 1 0 0
vn 1 0 0
vn 1 0 0

vt 1.25 -0.4
vt -1.25 -0.4
vt 1.25 0.4
vt -1.25 0.4
vt 1.193624 -0.3583578
vt 2.384186E-07 -0.3583578
vt 2.384186E-07 -0.01788855
vt 1.193624 -0.01788855
vt 2.384186E-07 -0.3583578
vt -1.201115 -0.3583578
vt -1.201115 -0.01788855
vt 2.384186E-07 -0.01788855
vt -1.194563 0.02262744
vt -1.194563 0.3450888
vt 2.384186E-07 0.3450888
vt 2.384186E-07 0.02262744
vt 2.384186E-07 0.3450888
vt 1.205847 0.3450888
vt 1.205847 0.02262744
vt 2.384186E-07 0.02262744
vt 0.4999504 -0.4
vt -0.5000496 -0.4
vt -0.5000496 0.4
vt 0.4999504 0.4
vt 0.4999504 0
vt 0.5000496 -0.4
vt -0.4999504 -0.4
vt -0.4999504 0
vt -0.4999504 0.4
vt 0.5000496 0.4
vt -1.25 0.4999504
vt -2.384186E-07 0.4999504
vt 1.25 0.4999504
vt 1.25 -0.5000496
vt -1.25 -0.5000496
vt 1.25 -0.5000496
vt -1.25 -0.5000496
vt -1.25 0.4999504
vt 2.384186E-07 0.4999504
vt 1.25 0.4999504
vt 2.384186E-07 0.002209832
vt -1.25 0.002209832
vt 2.384186E-07 0.0248375
vt -1.194563 0.0248375
vt -1.249096 0
vt -1.249096 0.4
vt -1.193659 0.02262744
vt -1.193659 0.3450888
vt 1.248865 0.4
vt 1.248865 0
vt 1.204711 0.3450888
vt 1.204711 0.02262744
vt -1.25 0.3990887
vt 2.384186E-07 0.3990887
vt -1.194563 0.3441775
vt 2.384186E-07 0.3441775
vt 1.25 0.002209832
vt 2.384186E-07 0.002209832
vt 1.205847 0.0248375
vt 2.384186E-07 0.0248375
vt 2.384186E-07 0.3990887
vt 1.25 0.3990887
vt 2.384186E-07 0.3441775
vt 1.205847 0.3441775
vt 1.25 -0.3987981
vt 2.384186E-07 -0.3987981
vt 1.193624 -0.3571558
vt 2.384186E-07 -0.3571558
vt -1.25 -0.002795228
vt 2.384186E-07 -0.002795228
vt -1.201115 -0.02068405
vt 2.384186E-07 -0.02068405
vt 1.249111 0
vt 1.249111 -0.4
vt 1.192735 -0.01788855
vt 1.192735 -0.3583578
vt 2.384186E-07 -0.002795228
vt 1.25 -0.002795228
vt 2.384186E-07 -0.02068405
vt 1.193624 -0.02068405
vt 2.384186E-07 -0.3987981
vt -1.25 -0.3987981
vt 2.384186E-07 -0.3571558
vt -1.201115 -0.3571558
vt -1.248974 -0.4
vt -1.248974 0
vt -1.20009 -0.3583578
vt -1.20009 -0.01788855
vt -2.384186E-07 0.5000504
vt 1.194563 0.5000504
vt -2.384186E-07 -0.4237025
vt 1.194563 -0.4237025
vt -0.5000504 0.02262744
vt -0.5000504 0.3450888
vt 0.4237025 0.02262744
vt 0.4237025 0.3450888
vt 0.5000504 0.3450888
vt 0.5000504 0.02262744
vt -0.4237025 0.3450888
vt -0.4237025 0.02262744
vt -1.194563 0.5000504
vt 2.384186E-07 0.5000504
vt -1.194563 -0.4237025
vt 2.384186E-07 -0.4237025
vt -1.205847 0.5000504
vt -2.384186E-07 0.5000504
vt -1.205847 -0.4237025
vt -2.384186E-07 -0.4237025
vt 2.384186E-07 0.5000504
vt 1.205847 0.5000504
vt 2.384186E-07 -0.4237025
vt 1.205847 -0.4237025
vt -1.193624 0.5000504
vt -2.384186E-07 0.5000504
vt -1.193624 -0.4237025
vt -2.384186E-07 -0.4237025
vt -1.201115 0.5000504
vt 2.384186E-07 0.5000504
vt -1.201115 -0.4237025
vt 2.384186E-07 -0.4237025
vt 0.5000504 -0.01788855
vt 0.5000504 -0.3583578
vt -0.4237025 -0.01788855
vt -0.4237025 -0.3583578
vt 2.384186E-07 0.5000504
vt 1.193624 0.5000504
vt 2.384186E-07 -0.4237025
vt 1.193624 -0.4237025
vt -2.384186E-07 0.5000504
vt 1.201115 0.5000504
vt -2.384186E-07 -0.4237025
vt 1.201115 -0.4237025
vt -0.5000504 -0.3583578
vt -0.5000504 -0.01788855
vt 0.4237025 -0.3583578
vt 0.4237025 -0.01788855

g entertainment center_0
usemtl Default_Prototype
f 3/3/3 4/4/4 2/2/2 1/1/1
f 8/8/8 7/7/7 6/6/6 5/5/5
f 12/12/12 11/11/11 10/10/10 9/9/9
f 15/15/15 14/14/14 13/13/13 16/16/16
f 18/18/18 17/17/17 20/20/20 19/19/19
f 43/43/43 44/44/44 42/42/42 41/41/41
f 47/47/47 48/48/48 46/46/46 45/45/45
f 51/51/51 52/52/52 50/50/50 49/49/49
f 55/55/55 56/56/56 54/54/54 53/53/53
f 59/59/59 60/60/60 58/58/58 57/57/57
f 63/63/63 64/64/64 62/62/62 61/61/61
f 67/67/67 68/68/68 66/66/66 65/65/65
f 71/71/71 72/72/72 70/70/70 69/69/69
f 75/75/75 76/76/76 74/74/74 73/73/73
f 79/79/79 80/80/80 78/78/78 77/77/77
f 83/83/83 84/84/84 82/82/82 81/81/81
f 87/87/87 88/88/88 86/86/86 85/85/85
f 91/91/91 92/92/92 90/90/90 89/89/89
f 95/95/95 96/96/96 94/94/94 93/93/93
f 99/99/99 100/100/100 98/98/98 97/97/97
f 103/103/103 104/104/104 102/102/102 101/101/101
f 107/107/107 108/108/108 106/106/106 105/105/105
f 111/111/111 112/112/112 110/110/110 109/109/109
f 115/115/115 116/116/116 114/114/114 113/113/113
f 119/119/119 120/120/120 118/118/118 117/117/117
f 123/123/123 124/124/124 122/122/122 121/121/121
f 127/127/127 128/128/128 126/126/126 125/125/125
f 131/131/131 132/132/132 130/130/130 129/129/129
f 135/135/135 136/136/136 134/134/134 133/133/133

g entertainment center_1
usemtl Default_Prototype
f 22/22/22 21/21/21 25/25/25
f 23/23/23 22/22/22 25/25/25
f 23/23/23 25/25/25 24/24/24
f 29/29/29 28/28/28 30/30/30
f 28/28/28 26/26/26 30/30/30
f 28/28/28 27/27/27 26/26/26
f 32/32/32 34/34/34 33/33/33
f 34/34/34 32/32/32 35/35/35
f 32/32/32 31/31/31 35/35/35
f 36/36/36 40/40/40 39/39/39
f 36/36/36 39/39/39 37/37/37
f 38/38/38 37/37/37 39/39/39

