# Exported from ProBuilder
# http://www.procore3d.com/probuilder
# 9/29/2018 5:09:12 PM

mtllib ./entertainment_center_(small).mtl
o entertainment center (small)

g entertainment center (small)
v -2.13 0 -11
v -0.73 0 -11
v -2.13 0.8 -11
v -0.73 0.8 -11
v -0.7863761 0.04164219 -10.92365
v -0.88 0.04164219 -10.92365
v -0.88 0.3821115 -10.92365
v -0.7863761 0.3821115 -10.92365
v -0.88 0.04164219 -10.92365
v -2.081115 0.04164219 -10.92365
v -2.081115 0.3821115 -10.92365
v -0.88 0.3821115 -10.92365
v -2.074564 0.4226274 -10.92365
v -2.074564 0.7450888 -10.92365
v -0.88 0.7450888 -10.92365
v -0.88 0.4226274 -10.92365
v -0.88 0.7450888 -10.92365
v -0.7741534 0.7450888 -10.92365
v -0.7741534 0.4226274 -10.92365
v -0.88 0.4226274 -10.92365
v -2.13 0 -9.999999
v -2.13 0 -11
v -2.13 0.8 -11
v -2.13 0.8 -9.999999
v -2.13 0.4 -9.999999
v -0.73 0 -11
v -0.73 0 -9.999999
v -0.73 0.4 -9.999999
v -0.73 0.8 -9.999999
v -0.73 0.8 -11
v -0.73 0.8 -9.999999
v -0.88 0.8 -9.999999
v -2.13 0.8 -9.999999
v -2.13 0.8 -11
v -0.73 0.8 -11
v -0.73 0 -11
v -2.13 0 -11
v -2.13 0 -9.999999
v -0.88 0 -9.999999
v -0.73 0 -9.999999
v -0.88 0.4 -9.999999
v -2.13 0.4 -9.999999
v -0.88 0.4226274 -9.999899
v -2.074564 0.4226274 -9.999899
v -2.13 0.4 -9.999999
v -2.13 0.8 -9.999999
v -2.074564 0.4226274 -9.999899
v -2.074564 0.7450888 -9.999899
v -0.73 0.8 -9.999999
v -0.73 0.4 -9.999999
v -0.7741534 0.7450888 -9.999899
v -0.7741534 0.4226274 -9.999899
v -2.13 0.8 -9.999999
v -0.88 0.8 -9.999999
v -2.074564 0.7450888 -9.999899
v -0.88 0.7450888 -9.999899
v -0.73 0.4 -9.999999
v -0.88 0.4 -9.999999
v -0.7741534 0.4226274 -9.999899
v -0.88 0.4226274 -9.999899
v -0.88 0.8 -9.999999
v -0.73 0.8 -9.999999
v -0.88 0.7450888 -9.999899
v -0.7741534 0.7450888 -9.999899
v -0.73 0 -9.999999
v -0.88 0 -9.999999
v -0.7863761 0.04164219 -9.999899
v -0.88 0.04164219 -9.999899
v -2.13 0.4 -9.999999
v -0.88 0.4 -9.999999
v -2.081115 0.3821115 -9.999899
v -0.88 0.3821115 -9.999899
v -0.73 0.4 -9.999999
v -0.73 0 -9.999999
v -0.7863761 0.3821115 -9.999899
v -0.7863761 0.04164219 -9.999899
v -0.88 0.4 -9.999999
v -0.73 0.4 -9.999999
v -0.88 0.3821115 -9.999899
v -0.7863761 0.3821115 -9.999899
v -0.88 0 -9.999999
v -2.13 0 -9.999999
v -0.88 0.04164219 -9.999899
v -2.081115 0.04164219 -9.999899
v -2.13 0 -9.999999
v -2.13 0.4 -9.999999
v -2.081115 0.04164219 -9.999899
v -2.081115 0.3821115 -9.999899
v -0.88 0.4226274 -9.999899
v -2.074564 0.4226274 -9.999899
v -0.88 0.4226274 -10.92365
v -2.074564 0.4226274 -10.92365
v -2.074564 0.4226274 -9.999899
v -2.074564 0.7450888 -9.999899
v -2.074564 0.4226274 -10.92365
v -2.074564 0.7450888 -10.92365
v -0.7741534 0.7450888 -9.999899
v -0.7741534 0.4226274 -9.999899
v -0.7741534 0.7450888 -10.92365
v -0.7741534 0.4226274 -10.92365
v -2.074564 0.7450888 -9.999899
v -0.88 0.7450888 -9.999899
v -2.074564 0.7450888 -10.92365
v -0.88 0.7450888 -10.92365
v -0.7741534 0.4226274 -9.999899
v -0.88 0.4226274 -9.999899
v -0.7741534 0.4226274 -10.92365
v -0.88 0.4226274 -10.92365
v -0.88 0.7450888 -9.999899
v -0.7741534 0.7450888 -9.999899
v -0.88 0.7450888 -10.92365
v -0.7741534 0.7450888 -10.92365
v -0.7863761 0.04164219 -9.999899
v -0.88 0.04164219 -9.999899
v -0.7863761 0.04164219 -10.92365
v -0.88 0.04164219 -10.92365
v -2.081115 0.3821115 -9.999899
v -0.88 0.3821115 -9.999899
v -2.081115 0.3821115 -10.92365
v -0.88 0.3821115 -10.92365
v -0.7863761 0.3821115 -9.999899
v -0.7863761 0.04164219 -9.999899
v -0.7863761 0.3821115 -10.92365
v -0.7863761 0.04164219 -10.92365
v -0.88 0.3821115 -9.999899
v -0.7863761 0.3821115 -9.999899
v -0.88 0.3821115 -10.92365
v -0.7863761 0.3821115 -10.92365
v -0.88 0.04164219 -9.999899
v -2.081115 0.04164219 -9.999899
v -0.88 0.04164219 -10.92365
v -2.081115 0.04164219 -10.92365
v -2.081115 0.04164219 -9.999899
v -2.081115 0.3821115 -9.999899
v -2.081115 0.04164219 -10.92365
v -2.081115 0.3821115 -10.92365

vn 0 0 -1
vn 0 0 -1
vn 0 0 -1
vn 0 0 -1
vn 0 0 1
vn 0 0 1
vn 0 0 1
vn 0 0 1
vn 0 0 0.9999999
vn 0 0 0.9999999
vn 0 0 0.9999999
vn 0 0 0.9999999
vn 0 0 1
vn 0 0 1
vn 0 0 1
vn 0 0 1
vn 0 0 1
vn 0 0 1
vn 0 0 1
vn 0 0 1
vn -1 0 0
vn -1 0 0
vn -1 0 0
vn -1 0 0
vn -1 0 0
vn 1 0 0
vn 1 0 0
vn 1 0 0
vn 1 0 0
vn 1 0 0
vn 0 1 0
vn 0 1 0
vn 0 1 0
vn 0 1 0
vn 0 1 0
vn 0 -1 0
vn 0 -1 0
vn 0 -1 0
vn 0 -1 0
vn 0 -1 0
vn 0 -0.004419369 0.9999903
vn 0 -0.004419369 0.9999903
vn 0 -0.00441937 0.9999903
vn 0 -0.004419369 0.9999903
vn -0.001803859 0 0.9999984
vn -0.001803859 0 0.9999984
vn -0.001803859 0 0.9999983
vn -0.001803859 0 0.9999984
vn 0.002264829 0 0.9999974
vn 0.002264829 0 0.9999974
vn 0.002264829 0 0.9999974
vn 0.002264829 0 0.9999974
vn 0 0.001821119 0.9999983
vn 0 0.001821119 0.9999983
vn 0 0.001821119 0.9999983
vn 0 0.001821119 0.9999983
vn 0 -0.004419369 0.9999902
vn 0 -0.004419369 0.9999903
vn 0 -0.004419369 0.9999903
vn 0 -0.004419369 0.9999902
vn 0 0.001821119 0.9999984
vn 0 0.001821119 0.9999983
vn 0 0.001821119 0.9999983
vn 0 0.001821119 0.9999984
vn 0 -0.002401403 0.9999971
vn 0 -0.002401404 0.9999971
vn 0 -0.002401404 0.9999971
vn 0 -0.002401403 0.9999971
vn 0 0.005590082 0.9999844
vn 0 0.005590082 0.9999844
vn 0 0.005590081 0.9999844
vn 0 0.005590082 0.9999844
vn 0.001773798 0 0.9999984
vn 0.001773798 0 0.9999984
vn 0.001773798 0 0.9999985
vn 0.001773798 0 0.9999984
vn 0 0.005590082 0.9999844
vn 0 0.005590082 0.9999843
vn 0 0.005590081 0.9999843
vn 0 0.005590082 0.9999844
vn 0 -0.002401404 0.9999971
vn 0 -0.002401404 0.9999971
vn 0 -0.002401404 0.9999971
vn 0 -0.002401404 0.9999971
vn -0.002045629 0 0.9999979
vn -0.002045628 0 0.9999979
vn -0.002045628 0 0.9999979
vn -0.002045629 0 0.9999979
vn 0 1 0
vn 0 1 0
vn 0 1 0
vn 0 1 0
vn 1 0 0
vn 1 0 0
vn 1 0 0
vn 1 0 0
vn -1 0 0
vn -1 0 0
vn -1 0 0
vn -1 0 0
vn 0 -1 0
vn 0 -1 0
vn 0 -1 0
vn 0 -1 0
vn 0 1 0
vn 0 1 0
vn 0 1 0
vn 0 1 0
vn 0 -1 0
vn 0 -1 0
vn 0 -1 0
vn 0 -1 0
vn 0 1 0
vn 0 1 0
vn 0 1 0
vn 0 1 0
vn 0 -1 0
vn 0 -1 0
vn 0 -1 0
vn 0 -1 0
vn -1 0 0
vn -1 0 0
vn -1 0 0
vn -1 0 0
vn 0 -1 0
vn 0 -1 0
vn 0 -1 0
vn 0 -1 0
vn 0 1 0
vn 0 1 0
vn 0 1 0
vn 0 1 0
vn 1 0 0
vn 1 0 0
vn 1 0 0
vn 1 0 0

vt 2.5 0
vt 1.1 0
vt 2.5 0.8
vt 1.1 0.8
vt -1.156376 0.04164219
vt -1.25 0.04164219
vt -1.25 0.3821115
vt -1.156376 0.3821115
vt -1.25 0.04164219
vt -2.451115 0.04164219
vt -2.451115 0.3821115
vt -1.25 0.3821115
vt -2.444563 0.4226274
vt -2.444563 0.7450888
vt -1.25 0.7450888
vt -1.25 0.4226274
vt -1.25 0.7450888
vt -1.144153 0.7450888
vt -1.144153 0.4226274
vt -1.25 0.4226274
vt 0 0
vt -1 0
vt -1 0.8
vt 0 0.8
vt 0 0.4
vt 1 0
vt 0 0
vt 0 0.4
vt 0 0.8
vt 1 0.8
vt 1.1 0
vt 1.25 0
vt 2.5 0
vt 2.5 -1
vt 1.1 -1
vt -1.1 -1
vt -2.5 -1
vt -2.5 0
vt -1.25 0
vt -1.1 0
vt -1.25 0.3999961
vt -2.5 0.3999961
vt -1.25 0.4226238
vt -2.444563 0.4226238
vt -2.499996 0.4
vt -2.499996 0.8
vt -2.444559 0.4226274
vt -2.444559 0.7450888
vt -1.099997 0.8
vt -1.099997 0.4
vt -1.144151 0.7450888
vt -1.144151 0.4226274
vt -2.5 0.7999987
vt -1.25 0.7999987
vt -2.444563 0.7450874
vt -1.25 0.7450874
vt -1.1 0.3999961
vt -1.25 0.3999961
vt -1.144153 0.4226238
vt -1.25 0.4226238
vt -1.25 0.7999987
vt -1.1 0.7999987
vt -1.25 0.7450874
vt -1.144153 0.7450874
vt -1.1 0
vt -1.25 0
vt -1.156376 0.04164231
vt -1.25 0.04164231
vt -2.5 0.3999938
vt -1.25 0.3999938
vt -2.451115 0.382105
vt -1.25 0.382105
vt -1.099998 0.4
vt -1.099998 0
vt -1.156374 0.3821115
vt -1.156374 0.04164219
vt -1.25 0.3999937
vt -1.1 0.3999937
vt -1.25 0.3821049
vt -1.156376 0.3821049
vt -1.25 0
vt -2.5 0
vt -1.25 0.04164231
vt -2.451115 0.04164231
vt -2.499995 0
vt -2.499995 0.4
vt -2.45111 0.04164219
vt -2.45111 0.3821115
vt 1.25 0.0001
vt 2.444563 0.0001
vt 1.25 -0.9236529
vt 2.444563 -0.9236529
vt -0.0001 0.4226274
vt -0.0001 0.7450888
vt 0.9236529 0.4226274
vt 0.9236529 0.7450888
vt 0.0001 0.7450888
vt 0.0001 0.4226274
vt -0.9236529 0.7450888
vt -0.9236529 0.4226274
vt -2.444563 0.0001
vt -1.25 0.0001
vt -2.444563 -0.9236529
vt -1.25 -0.9236529
vt 1.144153 0.0001
vt 1.25 0.0001
vt 1.144153 -0.9236529
vt 1.25 -0.9236529
vt -1.25 0.0001
vt -1.144153 0.0001
vt -1.25 -0.9236529
vt -1.144153 -0.9236529
vt 1.156376 0.0001
vt 1.25 0.0001
vt 1.156376 -0.9236529
vt 1.25 -0.9236529
vt -2.451115 0.0001
vt -1.25 0.0001
vt -2.451115 -0.9236529
vt -1.25 -0.9236529
vt 0.0001 0.3821115
vt 0.0001 0.04164219
vt -0.9236529 0.3821115
vt -0.9236529 0.04164219
vt -1.25 0.0001
vt -1.156376 0.0001
vt -1.25 -0.9236529
vt -1.156376 -0.9236529
vt 1.25 0.0001
vt 2.451115 0.0001
vt 1.25 -0.9236529
vt 2.451115 -0.9236529
vt -0.0001 0.04164219
vt -0.0001 0.3821115
vt 0.9236529 0.04164219
vt 0.9236529 0.3821115

g entertainment center (small)_0
usemtl Default_Prototype
f 3/3/3 4/4/4 2/2/2 1/1/1
f 8/8/8 7/7/7 6/6/6 5/5/5
f 12/12/12 11/11/11 10/10/10 9/9/9
f 15/15/15 14/14/14 13/13/13 16/16/16
f 18/18/18 17/17/17 20/20/20 19/19/19
f 43/43/43 44/44/44 42/42/42 41/41/41
f 47/47/47 48/48/48 46/46/46 45/45/45
f 51/51/51 52/52/52 50/50/50 49/49/49
f 55/55/55 56/56/56 54/54/54 53/53/53
f 59/59/59 60/60/60 58/58/58 57/57/57
f 63/63/63 64/64/64 62/62/62 61/61/61
f 67/67/67 68/68/68 66/66/66 65/65/65
f 71/71/71 72/72/72 70/70/70 69/69/69
f 75/75/75 76/76/76 74/74/74 73/73/73
f 79/79/79 80/80/80 78/78/78 77/77/77
f 83/83/83 84/84/84 82/82/82 81/81/81
f 87/87/87 88/88/88 86/86/86 85/85/85
f 91/91/91 92/92/92 90/90/90 89/89/89
f 95/95/95 96/96/96 94/94/94 93/93/93
f 99/99/99 100/100/100 98/98/98 97/97/97
f 103/103/103 104/104/104 102/102/102 101/101/101
f 107/107/107 108/108/108 106/106/106 105/105/105
f 111/111/111 112/112/112 110/110/110 109/109/109
f 115/115/115 116/116/116 114/114/114 113/113/113
f 119/119/119 120/120/120 118/118/118 117/117/117
f 123/123/123 124/124/124 122/122/122 121/121/121
f 127/127/127 128/128/128 126/126/126 125/125/125
f 131/131/131 132/132/132 130/130/130 129/129/129
f 135/135/135 136/136/136 134/134/134 133/133/133

g entertainment center (small)_1
usemtl Default_Prototype
f 22/22/22 21/21/21 25/25/25
f 23/23/23 22/22/22 25/25/25
f 23/23/23 25/25/25 24/24/24
f 29/29/29 28/28/28 30/30/30
f 28/28/28 26/26/26 30/30/30
f 28/28/28 27/27/27 26/26/26
f 32/32/32 34/34/34 33/33/33
f 34/34/34 32/32/32 35/35/35
f 32/32/32 31/31/31 35/35/35
f 36/36/36 40/40/40 39/39/39
f 36/36/36 39/39/39 37/37/37
f 38/38/38 37/37/37 39/39/39

