# Exported from ProBuilder
# http://www.procore3d.com/probuilder
# 9/29/2018 5:29:46 PM

mtllib ./flat_screen_TV.mtl
o flat screen TV

g flat screen TV
v 0.9180157 -0.4618131 0.1429079
v -0.9180152 -0.4618131 0.1429079
v 0.9180157 0.5319327 0.1429079
v -0.9180152 0.5319327 0.1429079
v -0.9999998 -0.6 0.1746235
v -0.9999998 -0.6 -0.02537632
v -0.9999998 0.6 0.1746235
v -0.9999998 0.6 -0.02537632
v -0.7453364 -0.1152804 -0.1747234
v 0.7453369 -0.1152804 -0.1747234
v -0.7453364 0.3796819 -0.1747234
v 0.7453369 0.3796819 -0.1747234
v 1 -0.6 -0.02537632
v 1 -0.6 0.1746235
v 1 0.6 -0.02537632
v 1 0.6 0.1746235
v 1 0.6 0.1746235
v -0.9999998 0.6 0.1746235
v 1 0.6 -0.02537632
v -0.9999998 0.6 -0.02537632
v 1 -0.6 -0.02537632
v -0.9999998 -0.6 -0.02537632
v 1 -0.6 0.1746235
v -0.9999998 -0.6 0.1746235
v -0.9999998 -0.6 -0.02537632
v 1 -0.6 -0.02537632
v -0.8468627 -0.2166778 -0.02547634
v 0.8468632 -0.2166778 -0.02547634
v -0.9999998 0.6 -0.02537632
v -0.9999998 -0.6 -0.02537632
v -0.8468627 0.4810793 -0.02547634
v -0.8468627 -0.2166778 -0.02547634
v 1 -0.6 -0.02537632
v 1 0.6 -0.02537632
v 0.8468632 -0.2166778 -0.02547634
v 0.8468632 0.4810793 -0.02547634
v 1 0.6 -0.02537632
v -0.9999998 0.6 -0.02537632
v 0.8468632 0.4810793 -0.02547634
v -0.8468627 0.4810793 -0.02547634
v -0.8468627 -0.2166778 -0.02547634
v 0.8468632 -0.2166778 -0.02547634
v -0.7453364 -0.1152804 -0.1747234
v 0.7453369 -0.1152804 -0.1747234
v -0.8468627 0.4810793 -0.02547634
v -0.8468627 -0.2166778 -0.02547634
v -0.7453364 0.3796819 -0.1747234
v -0.7453364 -0.1152804 -0.1747234
v 0.8468632 -0.2166778 -0.02547634
v 0.8468632 0.4810793 -0.02547634
v 0.7453369 -0.1152804 -0.1747234
v 0.7453369 0.3796819 -0.1747234
v 0.8468632 0.4810793 -0.02547634
v -0.8468627 0.4810793 -0.02547634
v 0.7453369 0.3796819 -0.1747234
v -0.7453364 0.3796819 -0.1747234
v 1 -0.6 0.1746235
v -0.9999998 -0.6 0.1746235
v 0.9464079 -0.4771803 0.1747235
v -0.9464074 -0.4771803 0.1747235
v 1 0.6 0.1746235
v 1 -0.6 0.1746235
v 0.9464079 0.5472998 0.1747235
v 0.9464079 -0.4771803 0.1747235
v -0.9999998 -0.6 0.1746235
v -0.9999998 0.6 0.1746235
v -0.9464074 -0.4771803 0.1747235
v -0.9464074 0.5472998 0.1747235
v -0.9999998 0.6 0.1746235
v 1 0.6 0.1746235
v -0.9464074 0.5472998 0.1747235
v 0.9464079 0.5472998 0.1747235
v 0.9464079 -0.4771803 0.1747235
v -0.9464074 -0.4771803 0.1747235
v 0.9180157 -0.4618131 0.1429079
v -0.9180152 -0.4618131 0.1429079
v 0.9464079 0.5472998 0.1747235
v 0.9464079 -0.4771803 0.1747235
v 0.9180157 0.5319327 0.1429079
v 0.9180157 -0.4618131 0.1429079
v -0.9464074 -0.4771803 0.1747235
v -0.9464074 0.5472998 0.1747235
v -0.9180152 -0.4618131 0.1429079
v -0.9180152 0.5319327 0.1429079
v -0.9464074 0.5472998 0.1747235
v 0.9464079 0.5472998 0.1747235
v -0.9180152 0.5319327 0.1429079
v 0.9180157 0.5319327 0.1429079

vn 0 0 0.9999999
vn 0 0 0.9999999
vn 0 0 0.9999999
vn 0 0 0.9999999
vn -1 0 0
vn -1 0 0
vn -1 0 0
vn -1 0 0
vn 0 0 -1
vn 0 0 -1
vn 0 0 -1
vn 0 0 -1
vn 1 0 0
vn 1 0 0
vn 1 0 0
vn 1 0 0
vn 0 1 0
vn 0 1 0
vn 0 1 0
vn 0 1 0
vn 0 -1 0
vn 0 -1 0
vn 0 -1 0
vn 0 -1 0
vn 0 -0.0002609204 -0.9999999
vn 0 -0.0002609204 -0.9999999
vn 0 -0.0002609204 -0.9999999
vn 0 -0.0002609204 -0.9999999
vn -0.0006531178 0 -0.9999998
vn -0.0006531179 0 -0.9999998
vn -0.0006531179 0 -0.9999998
vn -0.0006531178 0 -0.9999998
vn 0.0006531179 0 -0.9999998
vn 0.0006531179 0 -0.9999998
vn 0.000653118 0 -0.9999998
vn 0.0006531179 0 -0.9999998
vn 0 0.0008410359 -0.9999996
vn 0 0.0008410359 -0.9999996
vn 0 0.0008410358 -0.9999996
vn 0 0.0008410359 -0.9999996
vn 0 -0.8271599 -0.5619665
vn 0 -0.8271599 -0.5619665
vn 0 -0.8271599 -0.5619665
vn 0 -0.8271599 -0.5619665
vn -0.8268279 0 -0.562455
vn -0.8268279 0 -0.562455
vn -0.8268279 0 -0.562455
vn -0.8268279 0 -0.562455
vn 0.8268279 0 -0.562455
vn 0.8268279 0 -0.562455
vn 0.8268279 0 -0.562455
vn 0.8268279 0 -0.562455
vn 0 0.8271599 -0.5619666
vn 0 0.8271599 -0.5619666
vn 0 0.8271599 -0.5619666
vn 0 0.8271599 -0.5619666
vn 0 -0.0008143368 0.9999997
vn 0 -0.0008143368 0.9999997
vn 0 -0.0008143367 0.9999996
vn 0 -0.0008143368 0.9999997
vn 0.001866243 0 0.9999982
vn 0.001866243 0 0.9999983
vn 0.001866243 0 0.9999982
vn 0.001866243 0 0.9999982
vn -0.001866245 0 0.9999983
vn -0.001866245 0 0.9999983
vn -0.001866245 0 0.9999982
vn -0.001866245 0 0.9999983
vn 0 0.001897839 0.9999982
vn 0 0.001897839 0.9999983
vn 0 0.001897839 0.9999982
vn 0 0.001897839 0.9999982
vn 0 0.9004641 0.4349304
vn 0 0.9004641 0.4349304
vn 0 0.9004641 0.4349304
vn 0 0.9004641 0.4349304
vn -0.7461081 0 0.6658248
vn -0.7461081 0 0.6658248
vn -0.7461081 0 0.6658247
vn -0.7461081 0 0.6658248
vn 0.7461081 0 0.6658248
vn 0.7461081 0 0.6658248
vn 0.7461081 0 0.6658248
vn 0.7461081 0 0.6658248
vn 0 -0.9004643 0.4349297
vn 0 -0.9004644 0.4349297
vn 0 -0.9004644 0.4349297
vn 0 -0.9004643 0.4349297

vt 0.9180157 -0.4618131
vt -0.9180152 -0.4618131
vt 0.9180157 0.5319327
vt -0.9180152 0.5319327
vt 0.1746235 -0.6
vt -0.02537632 -0.6
vt 0.1746235 0.6
vt -0.02537632 0.6
vt 0.7453364 -0.1152804
vt -0.7453369 -0.1152804
vt 0.7453364 0.3796819
vt -0.7453369 0.3796819
vt 0.02537632 -0.6
vt -0.1746235 -0.6
vt 0.02537632 0.6
vt -0.1746235 0.6
vt -1 0.1746235
vt 0.9999998 0.1746235
vt -1 -0.02537632
vt 0.9999998 -0.02537632
vt 1 -0.02537632
vt -0.9999998 -0.02537632
vt 1 0.1746235
vt -0.9999998 0.1746235
vt 0.9999998 -0.5999933
vt -1 -0.5999933
vt 0.8468627 -0.2166711
vt -0.8468632 -0.2166711
vt 0.999983 0.6
vt 0.999983 -0.6
vt 0.8468459 0.4810793
vt 0.8468459 -0.2166778
vt -0.9999835 -0.6
vt -0.9999835 0.6
vt -0.8468463 -0.2166778
vt -0.8468463 0.4810793
vt -1 0.5999784
vt 0.9999998 0.5999784
vt -0.8468632 0.4810577
vt 0.8468627 0.4810577
vt -0.8468627 0.1006927
vt 0.8468632 0.1006927
vt -0.7453364 -0.07974047
vt 0.7453369 -0.07974047
vt 0.4552576 0.4810793
vt 0.4552576 -0.2166778
vt 0.274752 0.3796819
vt 0.274752 -0.1152804
vt -0.4552579 -0.2166778
vt -0.4552579 0.4810793
vt -0.2747523 -0.1152804
vt -0.2747523 0.3796819
vt -0.8468632 0.2492775
vt 0.8468627 0.2492775
vt -0.7453369 0.06884435
vt 0.7453364 0.06884435
vt 1 -0.5998576
vt -0.9999998 -0.5998576
vt 0.9464079 -0.4770379
vt -0.9464074 -0.4770379
vt 0.9996726 0.6
vt 0.9996726 -0.6
vt 0.9460801 0.5472998
vt 0.9460801 -0.4771803
vt -0.9996721 -0.6
vt -0.9996721 0.6
vt -0.9460797 -0.4771803
vt -0.9460797 0.5472998
vt -0.9999998 0.5996675
vt 1 0.5996675
vt -0.9464074 0.5469672
vt 0.9464079 0.5469672
vt -0.9464079 0.3648725
vt 0.9464074 0.3648725
vt -0.9180157 0.32954
vt 0.9180152 0.32954
vt 0.7605045 0.5472998
vt 0.7605045 -0.4771803
vt 0.7178623 0.5319327
vt 0.7178623 -0.4618131
vt -0.7605042 -0.4771803
vt -0.7605042 0.5472998
vt -0.7178621 -0.4618131
vt -0.7178621 0.5319327
vt -0.9464074 0.3953693
vt 0.9464079 0.3953693
vt -0.9180152 0.3600368
vt 0.9180157 0.3600368

g flat screen TV
usemtl Default_Prototype
f 3/3/3 4/4/4 2/2/2 1/1/1
f 7/7/7 8/8/8 6/6/6 5/5/5
f 11/11/11 12/12/12 10/10/10 9/9/9
f 15/15/15 16/16/16 14/14/14 13/13/13
f 19/19/19 20/20/20 18/18/18 17/17/17
f 23/23/23 24/24/24 22/22/22 21/21/21
f 27/27/27 28/28/28 26/26/26 25/25/25
f 31/31/31 32/32/32 30/30/30 29/29/29
f 35/35/35 36/36/36 34/34/34 33/33/33
f 39/39/39 40/40/40 38/38/38 37/37/37
f 43/43/43 44/44/44 42/42/42 41/41/41
f 47/47/47 48/48/48 46/46/46 45/45/45
f 51/51/51 52/52/52 50/50/50 49/49/49
f 55/55/55 56/56/56 54/54/54 53/53/53
f 59/59/59 60/60/60 58/58/58 57/57/57
f 63/63/63 64/64/64 62/62/62 61/61/61
f 67/67/67 68/68/68 66/66/66 65/65/65
f 71/71/71 72/72/72 70/70/70 69/69/69
f 75/75/75 76/76/76 74/74/74 73/73/73
f 79/79/79 80/80/80 78/78/78 77/77/77
f 83/83/83 84/84/84 82/82/82 81/81/81
f 87/87/87 88/88/88 86/86/86 85/85/85

