# Exported from ProBuilder
# http://www.procore3d.com/probuilder
# 9/29/2018 5:07:58 PM

mtllib ./recliner.mtl
o recliner

g recliner
v -1.1 0 -4.199512
v -2.1 0 -4.199512
v -1.1 0.6 -4.099513
v -2.1 0.6 -4.099513
v -2.3 0 -4.399513
v -2.3 0 -5.399513
v -2.3 0.6 -4.399513
v -2.3 0.6 -5.399513
v -2.1 0 -5.399513
v -1.1 0 -5.399513
v -2.1 0.6 -5.399513
v -1.1 0.6 -5.399513
v -0.9000003 0 -5.399513
v -0.9000003 0 -4.399513
v -0.9000003 0.6 -5.399513
v -0.9000003 0.6 -4.399513
v -1.1 0.6 -4.399513
v -2.1 0.6 -4.399513
v -1.1 0.6 -5.399513
v -2.1 0.6 -5.399513
v -1.1 0 -5.399513
v -2.1 0 -5.399513
v -1.1 0 -4.399513
v -2.1 0 -4.399513
v -1.1 0 -5.399513
v -1.1 0 -4.399513
v -0.9000003 0 -5.399513
v -0.9000003 0 -4.399513
v -1.1 0.6 -5.399513
v -1.1 0 -5.399513
v -0.9000003 0.6 -5.399513
v -0.9000003 0 -5.399513
v -1.1 0 -4.199512
v -1.1 0.6 -4.099513
v -0.9000003 0 -4.199512
v -0.9000003 0.6 -4.099513
v -1.1 0.9 -4.299513
v -1.1 0.9 -5.180853
v -0.9000003 0.9 -4.299513
v -0.9000003 0.9 -5.180853
v -2.1 0 -4.399513
v -2.1 0 -5.399513
v -2.3 0 -4.399513
v -2.3 0 -5.399513
v -2.1 0.6 -4.099513
v -2.1 0 -4.199512
v -2.3 0.6 -4.099513
v -2.3 0 -4.199512
v -2.1 0 -5.399513
v -2.1 0.6 -5.399513
v -2.3 0 -5.399513
v -2.3 0.6 -5.399513
v -2.1 0.9 -5.180853
v -2.1 0.9 -4.299513
v -2.3 0.9 -5.180853
v -2.3 0.9 -4.299513
v -2.1 1.993641 -3.975335
v -1.1 1.993641 -3.975335
v -2.1 1.932755 -3.743824
v -1.1 1.932755 -3.743824
v -2.3 1.993641 -3.975335
v -2.1 1.993641 -3.975335
v -2.3 1.932755 -3.743824
v -2.1 1.932755 -3.743824
v -2.1 0 -4.399513
v -2.3 0 -4.399513
v -2.1 0 -4.199512
v -2.3 0 -4.199512
v -2.3 0 -4.399513
v -2.3 0.6 -4.399513
v -2.3 0 -4.199512
v -2.3 0.6 -4.099513
v -1.1 0 -4.399513
v -2.1 0 -4.399513
v -1.1 0 -4.199512
v -2.1 0 -4.199512
v -0.9000003 0 -4.399513
v -1.1 0 -4.399513
v -0.9000003 0 -4.199512
v -1.1 0 -4.199512
v -1.1 1.993641 -3.975335
v -0.9000003 1.993641 -3.975335
v -1.1 1.932755 -3.743824
v -0.9000003 1.932755 -3.743824
v -0.9000003 0.6 -4.399513
v -0.9000003 0 -4.399513
v -0.9000003 0.6 -4.099513
v -0.9000003 0 -4.199512
v -1.1 0.6 -5.399513
v -0.9000003 0.6 -5.399513
v -1.1 0.7806798 -5.343105
v -0.9000003 0.7806798 -5.343105
v -1.1 0.6 -4.099513
v -2.1 0.6 -4.099513
v -1.1 0.9 -3.999513
v -2.1 0.9 -3.999513
v -0.9000003 0.6 -4.399513
v -0.9000003 0.6 -4.099513
v -0.9000003 0.9 -4.299513
v -0.9000003 0.9 -3.999513
v -0.9000003 0.6 -4.099513
v -1.1 0.6 -4.099513
v -0.9000003 0.9 -3.999513
v -1.1 0.9 -3.999513
v -2.1 0.6 -4.399513
v -1.1 0.6 -4.399513
v -2.1 0.9 -4.299513
v -1.1 0.9 -4.299513
v -2.1 0.6 -4.099513
v -2.3 0.6 -4.099513
v -2.1 0.9 -3.999513
v -2.3 0.9 -3.999513
v -2.3 0.6 -4.099513
v -2.3 0.6 -4.399513
v -2.3 0.9 -3.999513
v -2.3 0.9 -4.299513
v -2.3 0.6 -5.399513
v -2.1 0.6 -5.399513
v -2.3 0.7806798 -5.343105
v -2.1 0.7806798 -5.343105
v -2.1 0.9 -4.299513
v -1.1 0.9 -4.299513
v -2.1 1.975881 -4.006091
v -1.1 1.975881 -4.006091
v -2.1 0.9 -3.999513
v -2.3 0.9 -3.999513
v -2.1 1.902277 -3.726222
v -2.3 1.902277 -3.726222
v -1.1 0.9 -3.999513
v -2.1 0.9 -3.999513
v -1.1 1.902277 -3.726222
v -2.1 1.902277 -3.726222
v -1.1 0.9 -4.299513
v -0.9000003 0.9 -4.299513
v -1.1 1.975881 -4.006091
v -0.9000003 1.975881 -4.006091
v -0.9000003 0.9 -3.999513
v -1.1 0.9 -3.999513
v -0.9000003 1.902277 -3.726222
v -1.1 1.902277 -3.726222
v -2.3 0.9 -4.299513
v -2.1 0.9 -4.299513
v -2.3 1.975881 -4.006091
v -2.1 1.975881 -4.006091
v -1.1 0.9 -5.180853
v -0.9000003 0.9 -5.180853
v -1.1 0.7806798 -5.343105
v -0.9000003 0.7806798 -5.343105
v -2.3 0.9 -5.180853
v -2.1 0.9 -5.180853
v -2.3 0.7806798 -5.343105
v -2.1 0.7806798 -5.343105
v -1.1 0.6 -5.399513
v -1.1 0.7806798 -5.343105
v -1.1 0.9 -5.180853
v -1.1 0.9 -4.299513
v -1.1 0.6 -4.399513
v -0.9000003 0.6 -4.399513
v -0.9000003 0.9 -4.299513
v -0.9000003 0.9 -5.180853
v -0.9000003 0.7806798 -5.343105
v -0.9000003 0.6 -5.399513
v -2.3 0.6 -5.399513
v -2.3 0.7806798 -5.343105
v -2.3 0.9 -5.180853
v -2.3 0.9 -4.299513
v -2.3 0.6 -4.399513
v -2.1 0.6 -4.399513
v -2.1 0.9 -4.299513
v -2.1 0.9 -5.180853
v -2.1 0.7806798 -5.343105
v -2.1 0.6 -5.399513
v -2.1 1.993641 -3.975335
v -1.1 1.993641 -3.975335
v -2.1 1.975881 -4.006091
v -1.1 1.975881 -4.006091
v -2.3 1.993641 -3.975335
v -2.1 1.993641 -3.975335
v -2.3 1.975881 -4.006091
v -2.1 1.975881 -4.006091
v -1.1 1.993641 -3.975335
v -0.9000003 1.993641 -3.975335
v -1.1 1.975881 -4.006091
v -0.9000003 1.975881 -4.006091
v -2.1 1.932755 -3.743824
v -2.3 1.932755 -3.743824
v -2.1 1.902277 -3.726222
v -2.3 1.902277 -3.726222
v -1.1 1.932755 -3.743824
v -2.1 1.932755 -3.743824
v -1.1 1.902277 -3.726222
v -2.1 1.902277 -3.726222
v -0.9000003 1.932755 -3.743824
v -1.1 1.932755 -3.743824
v -0.9000003 1.902277 -3.726222
v -1.1 1.902277 -3.726222
v -2.3 0.9 -4.299513
v -2.3 1.975881 -4.006091
v -2.3 1.993641 -3.975335
v -2.3 1.932755 -3.743824
v -2.3 1.902277 -3.726222
v -2.3 0.9 -3.999513
v -0.9000003 0.9 -3.999513
v -0.9000003 1.902277 -3.726222
v -0.9000003 1.932755 -3.743824
v -0.9000003 1.993641 -3.975335
v -0.9000003 1.975881 -4.006091
v -0.9000003 0.9 -4.299513

vn 0 -0.1643988 0.986394
vn 0 -0.1643988 0.986394
vn 0 -0.1643988 0.986394
vn 0 -0.1643988 0.986394
vn -1 0 0
vn -1 0 0
vn -1 0 0
vn -1 0 0
vn 0 0 -1
vn 0 0 -1
vn 0 0 -1
vn 0 0 -1
vn 1 0 0
vn 1 0 0
vn 1 0 0
vn 1 0 0
vn 0 1 0
vn 0 1 0
vn 0 1 0
vn 0 1 0
vn 0 -1 0
vn 0 -1 0
vn 0 -1 0
vn 0 -1 0
vn 0 -1 0
vn 0 -1 0
vn 0 -1 0
vn 0 -1 0
vn 0 0 -1
vn 0 0 -1
vn 0 0 -1
vn 0 0 -1
vn 0 -0.1643988 0.9863939
vn 0 -0.1643988 0.9863939
vn 0 -0.1643988 0.9863939
vn 0 -0.1643988 0.9863939
vn 0 1 0
vn 0 1 0
vn 0 1 0
vn 0 1 0
vn 0 -1 0
vn 0 -1 0
vn 0 -1 0
vn 0 -1 0
vn 0 -0.1643988 0.986394
vn 0 -0.1643988 0.986394
vn 0 -0.1643988 0.986394
vn 0 -0.1643988 0.986394
vn 0 0 -1
vn 0 0 -1
vn 0 0 -1
vn 0 0 -1
vn 0 1 0
vn 0 1 0
vn 0 1 0
vn 0 1 0
vn 0 0.9671138 0.2543443
vn 0 0.9671138 0.2543443
vn 0 0.9671138 0.2543443
vn 0 0.9671138 0.2543443
vn 0 0.9671137 0.2543443
vn 0 0.9671137 0.2543443
vn 0 0.9671137 0.2543443
vn 0 0.9671137 0.2543443
vn 0 -1 0
vn 0 -1 0
vn 0 -1 0
vn 0 -1 0
vn -1 0 0
vn -1 0 0
vn -1 0 0
vn -1 0 0
vn 0 -1 0
vn 0 -1 0
vn 0 -1 0
vn 0 -1 0
vn 0 -1 0
vn 0 -1 0
vn 0 -1 0
vn 0 -1 0
vn 0 0.9671137 0.2543443
vn 0 0.9671137 0.2543443
vn 0 0.9671137 0.2543443
vn 0 0.9671137 0.2543443
vn 1 0 0
vn 1 0 0
vn 1 0 0
vn 1 0 0
vn 0 0.2980124 -0.954562
vn 0 0.2980124 -0.954562
vn 0 0.2980124 -0.954562
vn 0 0.2980124 -0.954562
vn 0 -0.3162275 0.9486834
vn 0 -0.3162275 0.9486834
vn 0 -0.3162275 0.9486834
vn 0 -0.3162275 0.9486834
vn 1 0 0
vn 1 0 0
vn 1 0 0
vn 1 0 0
vn 0 -0.3162275 0.9486834
vn 0 -0.3162275 0.9486834
vn 0 -0.3162275 0.9486834
vn 0 -0.3162275 0.9486834
vn 0 0.3162275 -0.9486834
vn 0 0.3162275 -0.9486834
vn 0 0.3162275 -0.9486834
vn 0 0.3162275 -0.9486834
vn 0 -0.3162275 0.9486834
vn 0 -0.3162275 0.9486834
vn 0 -0.3162275 0.9486834
vn 0 -0.3162275 0.9486834
vn -1 0 0
vn -1 0 0
vn -1 0 0
vn -1 0 0
vn 0 0.2980124 -0.954562
vn 0 0.2980124 -0.954562
vn 0 0.2980124 -0.954562
vn 0 0.2980124 -0.954562
vn 0 0.2631176 -0.9647637
vn 0 0.2631176 -0.9647637
vn 0 0.2631176 -0.9647637
vn 0 0.2631176 -0.9647637
vn 0 -0.2630656 0.964778
vn 0 -0.2630656 0.964778
vn 0 -0.2630656 0.964778
vn 0 -0.2630656 0.964778
vn 0 -0.2630656 0.9647779
vn 0 -0.2630656 0.9647779
vn 0 -0.2630656 0.9647779
vn 0 -0.2630656 0.9647779
vn 0 0.2631176 -0.9647638
vn 0 0.2631176 -0.9647638
vn 0 0.2631176 -0.9647638
vn 0 0.2631176 -0.9647638
vn 0 -0.2630656 0.9647779
vn 0 -0.2630656 0.9647779
vn 0 -0.2630656 0.9647779
vn 0 -0.2630656 0.9647779
vn 0 0.2631176 -0.9647638
vn 0 0.2631176 -0.9647638
vn 0 0.2631176 -0.9647638
vn 0 0.2631176 -0.9647638
vn 0 0.8056091 -0.5924474
vn 0 0.8056091 -0.5924474
vn 0 0.8056091 -0.5924474
vn 0 0.8056091 -0.5924474
vn 0 0.8056091 -0.5924474
vn 0 0.8056091 -0.5924474
vn 0 0.8056091 -0.5924474
vn 0 0.8056091 -0.5924474
vn -0.9999999 0 0
vn -0.9999999 0 0
vn -1 0 0
vn -1 0 0
vn -1 0 0
vn 1 0 0
vn 1 0 0
vn 1 0 0
vn 1 0 0
vn 0.9999999 0 0
vn -0.9999999 0 0
vn -0.9999999 0 0
vn -1 0 0
vn -1 0 0
vn -1 0 0
vn 1 0 0
vn 1 0 0
vn 1 0 0
vn 1 0 0
vn 0.9999999 0 0
vn 0 0.8659809 -0.5000772
vn 0 0.8659809 -0.5000772
vn 0 0.8659809 -0.5000772
vn 0 0.8659809 -0.5000772
vn 0 0.8659809 -0.5000771
vn 0 0.8659809 -0.5000771
vn 0 0.8659809 -0.5000771
vn 0 0.8659809 -0.5000771
vn 0 0.8659809 -0.5000772
vn 0 0.8659809 -0.5000772
vn 0 0.8659809 -0.5000772
vn 0 0.8659809 -0.5000772
vn 0 0.5000989 0.8659683
vn 0 0.5000989 0.8659683
vn 0 0.5000989 0.8659683
vn 0 0.5000989 0.8659683
vn 0 0.5000989 0.8659683
vn 0 0.5000989 0.8659683
vn 0 0.5000989 0.8659683
vn 0 0.5000989 0.8659683
vn 0 0.5000988 0.8659682
vn 0 0.5000988 0.8659682
vn 0 0.5000988 0.8659682
vn 0 0.5000988 0.8659682
vn -1 0 0
vn -1 0 0
vn -1 0 0
vn -1 0 0
vn -1 0 0
vn -1 0 0
vn 1 0 0
vn 1 0 0
vn 1 0 0
vn 0.9999999 0 0
vn 1 0 0
vn 1 0 0

vt 0 0.0328798
vt -1 0.0328798
vt 0 0.6411561
vt -1 0.6411561
vt 0 0
vt -1 0
vt 0 0.6
vt -1 0.6
vt 1 0
vt 0 0
vt 1 0.6
vt 0 0.6
vt 1 0
vt 0 0
vt 1 0.6
vt 0 0.6
vt 0 0
vt 1 0
vt 0 -1
vt 1 -1
vt 0 -1
vt -1 -1
vt 0 0
vt -1 0
vt 0 -1
vt 0 0
vt 0.1999997 -1
vt 0.1999997 0
vt 0 0.6
vt 0 0
vt -0.1999997 0.6
vt -0.1999997 0
vt 0 0.0328798
vt 0 0.6411561
vt 0.1999997 0.0328798
vt 0.1999997 0.6411561
vt 0 0.0999999
vt 0 -0.7813406
vt -0.1999997 0.0999999
vt -0.1999997 -0.7813406
vt -1 0
vt -1 -1
vt -1.2 0
vt -1.2 -1
vt -1 0.6411561
vt -1 0.03287979
vt -1.2 0.6411561
vt -1.2 0.03287979
vt 1 0
vt 1 0.6
vt 1.2 0
vt 1.2 0.6
vt 1 -0.7813406
vt 1 0.0999999
vt 1.2 -0.7813406
vt 1.2 0.0999999
vt 1 -0.09684322
vt 0 -0.09684322
vt 1 0.1425406
vt 0 0.1425406
vt 1.2 -0.09684322
vt 1 -0.09684322
vt 1.2 0.1425406
vt 1 0.1425406
vt -1 0
vt -1.2 0
vt -1 0.2000002
vt -1.2 0.2000002
vt 0 0
vt 0 0.6
vt 0.2000002 0
vt 0.3000001 0.6
vt 0 0
vt -1 0
vt 0 0.2000002
vt -1 0.2000002
vt 0.1999997 0
vt 0 0
vt 0.1999997 0.2000002
vt 0 0.2000002
vt 0 -0.09684322
vt -0.1999997 -0.09684322
vt 0 0.1425406
vt -0.1999997 0.1425406
vt 0 0.6
vt 0 0
vt -0.3000001 0.6
vt -0.2000002 0
vt 0 0.2747249
vt -0.1999997 0.2747249
vt 0 0.4640052
vt -0.1999997 0.4640052
vt 0 0.6640784
vt -1 0.6640784
vt 0 0.9803061
vt -1 0.9803061
vt 0 0.6
vt -0.3000001 0.6
vt -0.0999999 0.9
vt -0.4 0.9
vt 0.1999997 0.6640784
vt 0 0.6640784
vt 0.1999997 0.9803061
vt 0 0.9803061
vt 1 0.5692101
vt 0 0.5692101
vt 1 0.8854378
vt 0 0.8854378
vt -1 0.6640784
vt -1.2 0.6640784
vt -1 0.9803061
vt -1.2 0.9803061
vt 0.3000001 0.6
vt 0 0.6
vt 0.4 0.9
vt 0.0999999 0.9
vt 1.2 0.2747249
vt 1 0.2747249
vt 1.2 0.4640052
vt 1 0.4640052
vt 1 0.8945992
vt 0 0.8945992
vt 1 2.009775
vt 0 2.009775
vt -1 0.9735264
vt -1.2 0.9735264
vt -1 2.012395
vt -1.2 2.012395
vt 0 0.9735264
vt -1 0.9735264
vt 0 2.012395
vt -1 2.012395
vt 0 0.8945992
vt -0.1999997 0.8945992
vt 0 2.009775
vt -0.1999997 2.009775
vt 0.1999997 0.9735264
vt 0 0.9735264
vt 0.1999997 2.012395
vt 0 2.012395
vt 1.2 0.8945991
vt 1 0.8945991
vt 1.2 2.009774
vt 1 2.009774
vt 0 -0.09625247
vt -0.1999997 -0.09625247
vt 0 -0.2976548
vt -0.1999997 -0.2976548
vt 1.2 -0.09625241
vt 1 -0.09625241
vt 1.2 -0.2976547
vt 1 -0.2976547
vt -1 0.6
vt -0.9435921 0.7806798
vt -0.7813406 0.9
vt 0.0999999 0.9
vt 0 0.6
vt 0 0.6
vt -0.0999999 0.9
vt 0.7813406 0.9
vt 0.9435921 0.7806798
vt 1 0.6
vt -1 0.6
vt -0.9435921 0.7806798
vt -0.7813406 0.9
vt 0.0999999 0.9
vt 0 0.6
vt 0 0.6
vt -0.0999999 0.9
vt 0.7813406 0.9
vt 0.9435921 0.7806798
vt 1 0.6
vt 1 1.364304
vt 0 1.364304
vt 1 1.328789
vt 0 1.328789
vt 1.2 1.364304
vt 1 1.364304
vt 1.2 1.328789
vt 1 1.328789
vt 0 1.364304
vt -0.1999997 1.364304
vt 0 1.328789
vt -0.1999997 1.328789
vt -1 1.345796
vt -1.2 1.345796
vt -1 1.3106
vt -1.2 1.3106
vt 0 1.345796
vt -1 1.345796
vt 0 1.3106
vt -1 1.3106
vt 0.1999997 1.345796
vt 0 1.345796
vt 0.1999997 1.3106
vt 0 1.3106
vt 0.0999999 0.9
vt 0.3934222 1.975881
vt 0.4241779 1.993641
vt 0.6556893 1.932755
vt 0.6732905 1.902277
vt 0.4 0.9
vt -0.4 0.9
vt -0.6732905 1.902277
vt -0.6556893 1.932755
vt -0.4241779 1.993641
vt -0.3934222 1.975881
vt -0.0999999 0.9

g recliner_0
usemtl Default_Prototype
f 3/3/3 4/4/4 2/2/2 1/1/1
f 7/7/7 8/8/8 6/6/6 5/5/5
f 11/11/11 12/12/12 10/10/10 9/9/9
f 15/15/15 16/16/16 14/14/14 13/13/13
f 19/19/19 20/20/20 18/18/18 17/17/17
f 23/23/23 24/24/24 22/22/22 21/21/21
f 27/27/27 28/28/28 26/26/26 25/25/25
f 31/31/31 32/32/32 30/30/30 29/29/29
f 35/35/35 36/36/36 34/34/34 33/33/33
f 39/39/39 40/40/40 38/38/38 37/37/37
f 43/43/43 44/44/44 42/42/42 41/41/41
f 47/47/47 48/48/48 46/46/46 45/45/45
f 51/51/51 52/52/52 50/50/50 49/49/49
f 55/55/55 56/56/56 54/54/54 53/53/53
f 59/59/59 60/60/60 58/58/58 57/57/57
f 63/63/63 64/64/64 62/62/62 61/61/61
f 67/67/67 68/68/68 66/66/66 65/65/65
f 71/71/71 72/72/72 70/70/70 69/69/69
f 75/75/75 76/76/76 74/74/74 73/73/73
f 79/79/79 80/80/80 78/78/78 77/77/77
f 83/83/83 84/84/84 82/82/82 81/81/81
f 87/87/87 88/88/88 86/86/86 85/85/85
f 91/91/91 92/92/92 90/90/90 89/89/89
f 95/95/95 96/96/96 94/94/94 93/93/93
f 99/99/99 100/100/100 98/98/98 97/97/97
f 103/103/103 104/104/104 102/102/102 101/101/101
f 107/107/107 108/108/108 106/106/106 105/105/105
f 111/111/111 112/112/112 110/110/110 109/109/109
f 115/115/115 116/116/116 114/114/114 113/113/113
f 119/119/119 120/120/120 118/118/118 117/117/117
f 123/123/123 124/124/124 122/122/122 121/121/121
f 127/127/127 128/128/128 126/126/126 125/125/125
f 131/131/131 132/132/132 130/130/130 129/129/129
f 135/135/135 136/136/136 134/134/134 133/133/133
f 139/139/139 140/140/140 138/138/138 137/137/137
f 143/143/143 144/144/144 142/142/142 141/141/141
f 148/148/148 147/147/147 145/145/145 146/146/146
f 152/152/152 151/151/151 149/149/149 150/150/150
f 176/176/176 175/175/175 173/173/173 174/174/174
f 180/180/180 179/179/179 177/177/177 178/178/178
f 184/184/184 183/183/183 181/181/181 182/182/182
f 188/188/188 187/187/187 185/185/185 186/186/186
f 192/192/192 191/191/191 189/189/189 190/190/190
f 196/196/196 195/195/195 193/193/193 194/194/194

g recliner_1
usemtl Default_Prototype
f 155/155/155 157/157/157 156/156/156
f 157/157/157 155/155/155 153/153/153
f 155/155/155 154/154/154 153/153/153
f 162/162/162 161/161/161 160/160/160
f 162/162/162 160/160/160 158/158/158
f 159/159/159 158/158/158 160/160/160
f 165/165/165 167/167/167 166/166/166
f 167/167/167 165/165/165 163/163/163
f 165/165/165 164/164/164 163/163/163
f 172/172/172 171/171/171 170/170/170
f 172/172/172 170/170/170 168/168/168
f 169/169/169 168/168/168 170/170/170
f 200/200/200 199/199/199 201/201/201
f 201/201/201 199/199/199 198/198/198
f 201/201/201 198/198/198 202/202/202
f 198/198/198 197/197/197 202/202/202
f 203/203/203 208/208/208 207/207/207
f 203/203/203 207/207/207 204/204/204
f 207/207/207 206/206/206 204/204/204
f 204/204/204 206/206/206 205/205/205

