# Exported from ProBuilder
# http://www.procore3d.com/probuilder
# 9/29/2018 9:24:23 PM

mtllib ./Refrigerator.mtl
o Refrigerator

g pb-MergedObject-7568956
v -0.7099981 0.573 -0.574965
v -0.7099981 0.573 -0.4930005
v -0.7099981 1.145036 -0.574965
v -0.7099981 1.145036 -0.4930005
v -0.7099981 0.573 -0.4930005
v -0.783 0.6195307 -0.4930005
v -0.7099981 1.145036 -0.4930005
v -0.783 1.098505 -0.4930005
v -0.783 0.6195307 -0.4930005
v -0.783 0.6195307 -0.574965
v -0.783 1.098505 -0.4930005
v -0.783 1.098505 -0.574965
v -0.783 0.6195307 -0.574965
v -0.7099981 0.573 -0.574965
v -0.783 1.098505 -0.574965
v -0.7099981 1.145036 -0.574965
v -0.7099981 1.145036 -0.574965
v -0.7099981 1.145036 -0.4930005
v -0.783 1.098505 -0.574965
v -0.783 1.098505 -0.4930005
v -0.783 0.6195307 -0.574965
v -0.783 0.6195307 -0.4930005
v -0.7099981 0.573 -0.574965
v -0.7099981 0.573 -0.4930005
v -0.7099981 -0.409 -0.574965
v -0.7099981 -0.409 -0.4930005
v -0.7099981 0.3058412 -0.574965
v -0.7099981 0.3058412 -0.4930005
v -0.7099981 -0.409 -0.4930005
v -0.783 -0.3608178 -0.4930005
v -0.7099981 0.3058412 -0.4930005
v -0.783 0.257659 -0.4930005
v -0.783 -0.3608178 -0.4930005
v -0.783 -0.3608178 -0.574965
v -0.783 0.257659 -0.4930005
v -0.783 0.257659 -0.574965
v -0.783 -0.3608178 -0.574965
v -0.7099981 -0.409 -0.574965
v -0.783 0.257659 -0.574965
v -0.7099981 0.3058412 -0.574965
v -0.7099981 0.3058412 -0.574965
v -0.7099981 0.3058412 -0.4930005
v -0.783 0.257659 -0.574965
v -0.783 0.257659 -0.4930005
v -0.783 -0.3608178 -0.574965
v -0.783 -0.3608178 -0.4930005
v -0.7099981 -0.409 -0.574965
v -0.7099981 -0.409 -0.4930005
v 0.783 -1.25 -0.6500001
v 0.783 -1.25 0.6500001
v 0.783 1.25 -0.6500001
v 0.783 1.25 0.6500001
v 0.783 1.25 -0.6500001
v 0.783 1.25 0.6500001
v -0.5482616 1.25 -0.6500001
v -0.5482616 1.25 0.6499996
v -0.5482616 -1.25 -0.6500001
v -0.5482616 -1.25 0.6499996
v 0.783 -1.25 -0.6500001
v 0.783 -1.25 0.6500001
v -0.717 -1.25 0.6499996
v -0.7169999 -1.25 0.0999999
v -0.7169999 0.4251345 0.0999999
v -0.717 0.4251345 0.6499996
v -0.7169999 -1.25 0.0999999
v -0.7169999 -1.25 -0.6500001
v -0.7169999 0.4251345 -0.6500001
v -0.7169999 0.4251345 0.0999999
v -0.7169999 0.4757094 -0.6500001
v -0.7169999 1.25 -0.6500001
v -0.7169999 1.25 0.0999999
v -0.7169999 0.4757094 0.0999999
v -0.7169999 1.25 0.0999999
v -0.717 1.25 0.6499996
v -0.717 0.4757094 0.6499996
v -0.7169999 0.4757094 0.0999999
v -0.5482616 -1.25 0.6499996
v -0.5482616 -1.25 -0.6500001
v -0.6326308 -1.25 -0.6500001
v -0.7169999 -1.25 -0.6500001
v -0.7169999 -1.25 0.0999999
v -0.717 -1.25 0.6499996
v -0.6326308 -1.25 0.6499996
v -0.5482616 0.4251345 0.6081128
v -0.5482616 -1.25 0.6081128
v -0.6326308 -1.25 0.6081128
v -0.6326308 0.4251344 0.6081128
v -0.5482616 -1.25 -0.6139913
v -0.5482616 0.4251345 -0.6139913
v -0.6326308 0.4251344 -0.6139913
v -0.6326308 -1.25 -0.6139913
v -0.6326308 1.25 -0.6500001
v -0.7169999 1.25 -0.6500001
v -0.7169999 0.4757094 -0.6500001
v -0.6326307 0.4757094 -0.6500001
v -0.7169999 0.4251345 -0.6500001
v -0.7169999 -1.25 -0.6500001
v -0.6326308 -1.25 -0.6500001
v -0.6326308 0.4251345 -0.6500001
v -0.5482616 0.4757094 0.6081128
v -0.6326306 0.4757094 0.6081128
v -0.5482616 0.4251345 0.6081128
v -0.6326308 0.4251344 0.6081128
v -0.5482616 0.4251345 -0.6139913
v -0.6326308 0.4251344 -0.6139913
v -0.5482616 0.4757094 -0.6139913
v -0.6326306 0.4757094 -0.6139913
v -0.5482616 -1.25 0.6499996
v -0.5482616 0.4251345 0.6499996
v -0.5482616 0.4757094 0.6499996
v -0.5482616 1.25 0.6499996
v 0.783 1.25 0.6500001
v 0.783 -1.25 0.6500001
v -0.717 -1.25 0.6499996
v -0.717 0.4251345 0.6499996
v -0.6326308 0.4251344 0.6499996
v -0.6326308 -1.25 0.6499996
v -0.5482616 1.25 -0.6500001
v -0.5482616 0.4757094 -0.6500001
v -0.5482616 0.4251345 -0.6500001
v -0.5482616 -1.25 -0.6500001
v 0.783 -1.25 -0.6500001
v 0.783 1.25 -0.6500001
v -0.717 1.25 0.6499996
v -0.717 0.4757094 0.6499996
v -0.6326308 1.25 0.6499996
v -0.6326308 0.4757094 0.6499996
v -0.5482616 0.4757094 0.6499996
v -0.5482616 0.4251345 0.6499996
v -0.5482616 0.4757094 0.6081128
v -0.5482616 0.4251345 0.6081128
v -0.6326308 0.4757094 0.6499996
v -0.6326308 1.25 0.6499996
v -0.6326306 0.4757094 0.6081128
v -0.6326308 1.25 0.6081128
v -0.5482616 1.25 0.6499996
v -0.5482616 0.4757094 0.6499996
v -0.5482616 1.25 0.6081128
v -0.5482616 0.4757094 0.6081128
v -0.5482616 -1.25 0.6499996
v -0.6326308 -1.25 0.6499996
v -0.5482616 -1.25 0.6081128
v -0.6326308 -1.25 0.6081128
v -0.6326308 -1.25 0.6499996
v -0.6326308 0.4251344 0.6499996
v -0.6326308 -1.25 0.6081128
v -0.6326308 0.4251344 0.6081128
v -0.5482616 0.4251345 0.6499996
v -0.5482616 -1.25 0.6499996
v -0.5482616 0.4251345 0.6081128
v -0.5482616 -1.25 0.6081128
v -0.6326308 0.4757094 0.6499996
v -0.7169999 0.4757094 0.0999999
v -0.717 0.4757094 0.6499996
v -0.6326306 0.4757094 0.0999999
v -0.6326306 0.4757094 0.6081128
v -0.6326308 0.4251344 0.0999999
v -0.717 0.4251345 0.6499996
v -0.7169999 0.4251345 0.0999999
v -0.6326308 0.4251344 0.6499996
v -0.6326308 0.4251344 0.6081128
v -0.6326308 0.4251344 0.6081128
v -0.6326308 0.4251344 0.0999999
v -0.6326306 0.4757094 0.0999999
v -0.6326306 0.4757094 0.6081128
v -0.5482616 0.4757094 -0.6500001
v -0.5482616 1.25 -0.6500001
v -0.5482616 0.4757094 -0.6139913
v -0.5482616 1.25 -0.6139913
v -0.6326308 1.25 -0.6500001
v -0.6326307 0.4757094 -0.6500001
v -0.6326308 1.25 -0.6139913
v -0.6326306 0.4757094 -0.6139913
v -0.6326308 0.4251345 -0.6500001
v -0.6326308 -1.25 -0.6500001
v -0.6326308 0.4251344 -0.6139913
v -0.6326308 -1.25 -0.6139913
v -0.5482616 0.4251345 -0.6500001
v -0.5482616 0.4757094 -0.6500001
v -0.5482616 0.4251345 -0.6139913
v -0.5482616 0.4757094 -0.6139913
v -0.5482616 -1.25 -0.6500001
v -0.5482616 0.4251345 -0.6500001
v -0.5482616 -1.25 -0.6139913
v -0.5482616 0.4251345 -0.6139913
v -0.6326308 -1.25 -0.6500001
v -0.5482616 -1.25 -0.6500001
v -0.6326308 -1.25 -0.6139913
v -0.5482616 -1.25 -0.6139913
v -0.6326306 0.4757094 0.0999999
v -0.7169999 0.4757094 -0.6500001
v -0.7169999 0.4757094 0.0999999
v -0.6326307 0.4757094 -0.6500001
v -0.6326306 0.4757094 -0.6139913
v -0.6326308 0.4251345 -0.6500001
v -0.7169999 0.4251345 0.0999999
v -0.7169999 0.4251345 -0.6500001
v -0.6326308 0.4251344 0.0999999
v -0.6326308 0.4251344 -0.6139913
v -0.6326306 0.4757094 0.0999999
v -0.6326308 0.4251344 0.0999999
v -0.6326308 0.4251344 -0.6139913
v -0.6326306 0.4757094 -0.6139913
v -0.5482616 1.216899 -0.6139913
v -0.6326308 1.216899 -0.6139913
v -0.5482616 1.216899 0.6081128
v -0.6326308 1.216899 0.6081128
v -0.6326308 1.25 -0.6500001
v -0.7169999 1.25 -0.6500001
v -0.6326308 1.25 0.6499996
v -0.717 1.25 0.6499996
v -0.5482616 1.25 -0.6139913
v -0.5482616 1.25 0.6081128
v -0.5482616 1.216899 -0.6139913
v -0.5482616 1.216899 0.6081128
v -0.6326308 1.25 0.6081128
v -0.6326308 1.25 -0.6139913
v -0.6326308 1.216899 0.6081128
v -0.6326308 1.216899 -0.6139913
v -0.5482616 0.4757094 -0.6139913
v -0.6326306 0.4757094 -0.6139913
v -0.5482616 1.216899 -0.6139913
v -0.6326308 1.216899 -0.6139913
v -0.5482616 1.216899 0.6081128
v -0.6326308 1.216899 0.6081128
v -0.5482616 0.4757094 0.6081128
v -0.6326306 0.4757094 0.6081128

vn 1 0 0
vn 1 0 0
vn 1 0 0
vn 1 0 0
vn 0 0 1
vn 0 0 1
vn 0 0 1
vn 0 0 1
vn -1 0 0
vn -1 0 0
vn -1 0 0
vn -1 0 0
vn 0 0 -1
vn 0 0 -1
vn 0 0 -1
vn 0 0 -1
vn -0.5374919 0.8432689 0
vn -0.5374919 0.8432689 0
vn -0.5374919 0.8432689 0
vn -0.5374919 0.8432689 0
vn -0.5374919 -0.8432689 0
vn -0.5374919 -0.8432689 0
vn -0.5374919 -0.8432689 0
vn -0.5374919 -0.8432689 0
vn 0.9999999 0 0
vn 0.9999999 0 0
vn 0.9999999 0 0
vn 0.9999999 0 0
vn 0 0 1
vn 0 0 1
vn 0 0 1
vn 0 0 1
vn -1 0 0
vn -1 0 0
vn -1 0 0
vn -1 0 0
vn 0 0 -1
vn 0 0 -1
vn 0 0 -1
vn 0 0 -1
vn -0.5508504 0.834604 0
vn -0.5508504 0.834604 0
vn -0.5508504 0.834604 0
vn -0.5508504 0.834604 0
vn -0.5508499 -0.8346043 0
vn -0.5508499 -0.8346043 0
vn -0.5508499 -0.8346043 0
vn -0.5508499 -0.8346043 0
vn 1 0 0
vn 1 0 0
vn 1 0 0
vn 1 0 0
vn 0 1 0
vn 0 1 0
vn 0 1 0
vn 0 1 0
vn 0 -1 0
vn 0 -1 0
vn 0 -1 0
vn 0 -1 0
vn -1 0 -2.167443E-07
vn -1 0 -2.167443E-07
vn -1 0 -2.167443E-07
vn -1 0 -2.167443E-07
vn -1 0 0
vn -1 0 0
vn -1 0 0
vn -1 0 0
vn -1 0 0
vn -1 0 0
vn -1 0 0
vn -1 0 0
vn -1 0 -2.167443E-07
vn -1 0 -2.167443E-07
vn -1 0 -2.167443E-07
vn -1 0 -2.167443E-07
vn 0 -1 0
vn 0 -1 0
vn 0 -1 0
vn 0 -1 0
vn 0 -1 0
vn 0 -1 0
vn 0 -1 0
vn 0 0 1
vn 0 0 1
vn 0 0 1
vn 0 0 1
vn 0 0 -1
vn 0 0 -1
vn 0 0 -1
vn 0 0 -1
vn 0 0 -1
vn 0 0 -1
vn 0 0 -1
vn 0 0 -1
vn 0 0 -1
vn 0 0 -1
vn 0 0 -1
vn 0 0 -1
vn 0 0 1
vn 0 0 1
vn 0 0 1
vn 0 0 1
vn 0 0 -1
vn 0 0 -1
vn 0 0 -1
vn 0 0 -1
vn -3.581844E-07 0 1
vn -3.581844E-07 0 1
vn -3.581844E-07 0 1
vn -3.581844E-07 0 0.9999999
vn -3.581844E-07 0 1
vn -3.581844E-07 0 1
vn 0 0 1
vn 0 0 1
vn 0 0 1
vn 0 0 1
vn 0 0 -0.9999999
vn 0 0 -1
vn 0 0 -1
vn 0 0 -1
vn 0 0 -1
vn 0 0 -1
vn 0 0 1
vn 0 0 1
vn 0 0 1
vn 0 0 1
vn -0.9999999 0 0
vn -0.9999999 0 0
vn -0.9999999 0 0
vn -0.9999999 0 0
vn 1 1.539594E-07 2.845987E-06
vn 1 0 0
vn 1 3.079187E-07 5.691973E-06
vn 1 1.539594E-07 2.845987E-06
vn -1 0 0
vn -1 0 0
vn -1 0 0
vn -1 0 0
vn 0 1 0
vn 0 1 0
vn 0 1 0
vn 0 1 0
vn 1 0 0
vn 1 0 0
vn 1 0 0
vn 1 0 0
vn -1 0 0
vn -1 0 0
vn -1 0 0
vn -1 0 0
vn 0 -1 0
vn 0 -1 0
vn 0 -1 0
vn 0 -0.9999999 0
vn 0 -0.9999999 0
vn 1.41295E-06 0.9999999 0
vn 1.412948E-06 1 2.845758E-13
vn 1.412949E-06 0.9999999 1.59186E-13
vn 1.412948E-06 1 0
vn 1.412949E-06 1 1.531243E-13
vn -1 4.714157E-06 0
vn -1 4.714157E-06 0
vn -1 4.714157E-06 0
vn -1 4.714157E-06 0
vn -1 0 0
vn -1 0 0
vn -1 0 0
vn -1 0 0
vn 1 2.309391E-07 -1.655278E-06
vn 1 1.539594E-07 -3.310557E-06
vn 1 3.079188E-07 0
vn 1 2.309391E-07 -1.655278E-06
vn 1 0 0
vn 1 0 0
vn 1 0 0
vn 1 0 0
vn -1 0 0
vn -1 0 0
vn -1 0 0
vn -1 0 0
vn -1 0 0
vn -1 0 0
vn -1 0 0
vn -1 0 0
vn 0 1 0
vn 0 1 0
vn 0 1 0
vn 0 1 0
vn 0 -1 0
vn 0 -1 0
vn 0 -1 0
vn 0 -1 0
vn 0 -1 0
vn 0 1 3.310557E-06
vn 1.41295E-06 1 0
vn 1.34822E-06 1 1.516641E-07
vn 1.41295E-06 1 0
vn 1.379031E-06 1 7.947286E-08
vn -1 4.714157E-06 0
vn -1 4.714157E-06 0
vn -1 4.714157E-06 0
vn -1 4.714157E-06 0
vn 0 1 0
vn 0 1 0
vn 0 1 0
vn 0 1 0
vn 0 1 0
vn 0 0.9999999 0
vn 0 0.9999999 0
vn 0 0.9999999 0
vn -1 0 0
vn -1 0 0
vn -1 0 0
vn -1 0 0
vn 1 0 0
vn 1 0 0
vn 1 0 0
vn 1 0 0
vn 0 0 -1
vn 0 0 -1
vn 0 0 -1
vn 0 0 -1
vn 0 0 1
vn 0 0 1
vn 0 0 1
vn 0 0 1

vt -0.9180358 0
vt -1 0
vt -0.9180358 0.572036
vt -1 0.572036
vt -0.9269981 0
vt -1 0.04653078
vt -0.9269981 0.572036
vt -1 0.5255052
vt 1 0.04653078
vt 0.9180358 0.04653078
vt 1 0.5255052
vt 0.9180358 0.5255052
vt 1 0.04653078
vt 0.9269981 0
vt 1 0.5255052
vt 0.9269981 0.572036
vt 0.9180358 -0.4742434
vt 1 -0.4742434
vt 0.9180358 -0.5608135
vt 1 -0.5608135
vt -0.9180358 -0.8682786
vt -1 -0.8682786
vt -0.9180358 -0.7817085
vt -1 -0.7817085
vt -0.9180358 0
vt -1 0
vt -0.9180358 0.7148411
vt -1 0.7148411
vt -0.9269981 0
vt -1 0.04818216
vt -0.9269981 0.7148411
vt -1 0.666659
vt 1 0.04818216
vt 0.9180358 0.04818216
vt 1 0.666659
vt 0.9180358 0.666659
vt 1 0.04818216
vt 0.9269981 0
vt 1 0.666659
vt 0.9269981 0.7148411
vt 0.9180358 -0.3799072
vt 1 -0.3799072
vt 0.9180358 -0.467376
vt 1 -0.467376
vt -0.9180358 -0.8611456
vt -1 -0.8611456
vt -0.9180358 -0.7736768
vt -1 -0.7736768
vt 0.5 0
vt -0.8 0
vt 0.5 2.5
vt -0.8 2.5
vt -0.5 0
vt 0.8 0
vt -0.5 -1.331262
vt 0.8 -1.331262
vt 0.5 -1.331262
vt -0.8 -1.331262
vt 0.5 0
vt -0.8 0
vt -1 0
vt -0.25 0
vt -0.25 1.650422
vt -1 1.650422
vt -0.25 0
vt 0.5 0
vt 0.5 1.650422
vt -0.25 1.650422
vt 0.5 1.750422
vt 0.5 2.5
vt -0.25 2.5
vt -0.25 1.750422
vt -0.25 2.5
vt -1 2.5
vt -1 1.750422
vt -0.25 1.750422
vt -0.8 -1.331262
vt 0.5 -1.331262
vt 0.5 -1.415631
vt 0.5 -1.5
vt -0.25 -1.5
vt -0.8 -1.5
vt -0.8 -1.415631
vt -1.331262 1.650422
vt -1.331262 0
vt -1.415631 0
vt -1.415631 1.650422
vt -1.331262 0
vt -1.331262 1.650422
vt -1.415631 1.650422
vt -1.415631 0
vt -1.415631 2.5
vt -1.5 2.5
vt -1.5 1.750422
vt -1.415631 1.750422
vt -1.5 1.650422
vt -1.5 0
vt -1.415631 0
vt -1.415631 1.650422
vt -1.331262 1.725709
vt -1.415631 1.725709
vt -1.331262 1.675135
vt -1.415631 1.675134
vt 1.331262 1.675135
vt 1.415631 1.675134
vt 1.331262 1.725709
vt 1.415631 1.725709
vt -1.331262 0
vt -1.331262 1.675135
vt -1.331262 1.725709
vt -1.331262 2.5
vt 0 2.5
vt 0 0
vt -1.5 0
vt -1.5 1.675135
vt -1.415631 1.675134
vt -1.415631 0
vt 1.331262 2.5
vt 1.331262 1.725709
vt 1.331262 1.675135
vt 1.331262 0
vt 0 0
vt 0 2.5
vt -1.5 2.5
vt -1.5 1.725709
vt -1.415631 2.5
vt -1.415631 1.725709
vt 0.8 1.725709
vt 0.8 1.675135
vt 0.7581133 1.725709
vt 0.7581133 1.675135
vt -0.800004 1.72571
vt -0.800004 2.5
vt -0.7581173 1.72571
vt -0.7581173 2.5
vt 0.8 2.5
vt 0.8 1.725709
vt 0.7581133 2.5
vt 0.7581133 1.725709
vt 0.8 -1.331262
vt 0.8 -1.415631
vt 0.7581133 -1.331262
vt 0.7581133 -1.415631
vt -0.8 0
vt -0.8 1.675134
vt -0.7581133 0
vt -0.7581133 1.675134
vt 0.8 1.675135
vt 0.8 0
vt 0.7581133 1.675135
vt 0.7581133 0
vt -0.8 -1.415631
vt -0.25 -1.5
vt -0.8 -1.5
vt -0.25 -1.415631
vt -0.7581133 -1.415631
vt 0.25 -1.415633
vt 0.8 -1.500002
vt 0.25 -1.500002
vt 0.8 -1.415633
vt 0.7581133 -1.415633
vt 0.7581133 1.675128
vt 0.25 1.675128
vt 0.25 1.725703
vt 0.7581133 1.725703
vt -0.5 1.725709
vt -0.5 2.5
vt -0.463991 1.725709
vt -0.463991 2.5
vt 0.5 2.5
vt 0.5 1.72571
vt 0.463991 2.5
vt 0.463991 1.72571
vt 0.5 1.675135
vt 0.5 0
vt 0.463991 1.675134
vt 0.463991 0
vt -0.5 1.675135
vt -0.5 1.725709
vt -0.463991 1.675135
vt -0.463991 1.725709
vt -0.5 0
vt -0.5 1.675135
vt -0.463991 0
vt -0.463991 1.675135
vt -0.5 -1.415631
vt -0.5 -1.331262
vt -0.463991 -1.415631
vt -0.463991 -1.331262
vt -0.25 -1.415631
vt 0.5 -1.5
vt -0.25 -1.5
vt 0.5 -1.415631
vt 0.463991 -1.415631
vt -0.5000001 -1.415632
vt 0.2499999 -1.500002
vt -0.5000001 -1.500002
vt 0.2499999 -1.415632
vt -0.4639911 -1.415632
vt 0.25 1.725703
vt 0.25 1.675128
vt -0.463991 1.675128
vt -0.463991 1.725703
vt -0.463991 -1.331262
vt -0.463991 -1.415631
vt 0.7581133 -1.331262
vt 0.7581133 -1.415631
vt -0.5 -1.415631
vt -0.5 -1.5
vt 0.8 -1.415631
vt 0.8 -1.5
vt -0.463991 2.5
vt 0.7581133 2.5
vt -0.463991 2.466899
vt 0.7581133 2.466899
vt -0.7581133 2.5
vt 0.463991 2.5
vt -0.7581133 2.466899
vt 0.463991 2.466899
vt 1.331262 1.725709
vt 1.415631 1.725709
vt 1.331262 2.466899
vt 1.415631 2.466899
vt -1.331262 2.466899
vt -1.415631 2.466899
vt -1.331262 1.725709
vt -1.415631 1.725709

g pb-MergedObject-7568956_0
usemtl Default_Prototype
f 3/3/3 4/4/4 2/2/2 1/1/1
f 7/7/7 8/8/8 6/6/6 5/5/5
f 11/11/11 12/12/12 10/10/10 9/9/9
f 15/15/15 16/16/16 14/14/14 13/13/13
f 19/19/19 20/20/20 18/18/18 17/17/17
f 23/23/23 24/24/24 22/22/22 21/21/21
f 27/27/27 28/28/28 26/26/26 25/25/25
f 31/31/31 32/32/32 30/30/30 29/29/29
f 35/35/35 36/36/36 34/34/34 33/33/33
f 39/39/39 40/40/40 38/38/38 37/37/37
f 43/43/43 44/44/44 42/42/42 41/41/41
f 47/47/47 48/48/48 46/46/46 45/45/45
f 51/51/51 52/52/52 50/50/50 49/49/49
f 55/55/55 56/56/56 54/54/54 53/53/53
f 59/59/59 60/60/60 58/58/58 57/57/57
f 61/61/61 64/64/64 63/63/63 62/62/62
f 65/65/65 68/68/68 67/67/67 66/66/66
f 72/72/72 71/71/71 70/70/70 69/69/69
f 75/75/75 74/74/74 73/73/73 76/76/76
f 84/84/84 87/87/87 86/86/86 85/85/85
f 91/91/91 90/90/90 89/89/89 88/88/88
f 94/94/94 93/93/93 92/92/92 95/95/95
f 97/97/97 96/96/96 99/99/99 98/98/98
f 103/103/103 102/102/102 100/100/100 101/101/101
f 107/107/107 106/106/106 104/104/104 105/105/105
f 116/116/116 115/115/115 114/114/114 117/117/117
f 127/127/127 126/126/126 124/124/124 125/125/125
f 130/130/130 131/131/131 129/129/129 128/128/128
f 134/134/134 135/135/135 133/133/133 132/132/132
f 138/138/138 139/139/139 137/137/137 136/136/136
f 142/142/142 143/143/143 141/141/141 140/140/140
f 146/146/146 147/147/147 145/145/145 144/144/144
f 150/150/150 151/151/151 149/149/149 148/148/148
f 162/162/162 165/165/165 164/164/164 163/163/163
f 168/168/168 169/169/169 167/167/167 166/166/166
f 172/172/172 173/173/173 171/171/171 170/170/170
f 176/176/176 177/177/177 175/175/175 174/174/174
f 180/180/180 181/181/181 179/179/179 178/178/178
f 184/184/184 185/185/185 183/183/183 182/182/182
f 188/188/188 189/189/189 187/187/187 186/186/186
f 201/201/201 200/200/200 203/203/203 202/202/202
f 207/207/207 206/206/206 204/204/204 205/205/205
f 211/211/211 210/210/210 208/208/208 209/209/209
f 214/214/214 215/215/215 213/213/213 212/212/212
f 218/218/218 219/219/219 217/217/217 216/216/216
f 223/223/223 222/222/222 220/220/220 221/221/221
f 227/227/227 226/226/226 224/224/224 225/225/225

g pb-MergedObject-7568956_1
usemtl Default_Prototype
f 77/77/77 81/81/81 78/78/78
f 77/77/77 83/83/83 81/81/81
f 83/83/83 82/82/82 81/81/81
f 81/81/81 79/79/79 78/78/78
f 81/81/81 80/80/80 79/79/79
f 109/109/109 108/108/108 113/113/113
f 113/113/113 112/112/112 109/109/109
f 112/112/112 110/110/110 109/109/109
f 112/112/112 111/111/111 110/110/110
f 119/119/119 118/118/118 123/123/123
f 120/120/120 119/119/119 123/123/123
f 120/120/120 123/123/123 122/122/122
f 122/122/122 121/121/121 120/120/120
f 156/156/156 153/153/153 155/155/155
f 153/153/153 156/156/156 154/154/154
f 156/156/156 152/152/152 154/154/154
f 191/191/191 193/193/193 194/194/194
f 194/194/194 192/192/192 191/191/191
f 194/194/194 190/190/190 192/192/192
f 161/161/161 158/158/158 160/160/160
f 158/158/158 161/161/161 159/159/159
f 161/161/161 157/157/157 159/159/159
f 199/199/199 196/196/196 198/198/198
f 196/196/196 199/199/199 197/197/197
f 199/199/199 195/195/195 197/197/197

