# Exported from ProBuilder
# http://www.procore3d.com/probuilder
# 9/29/2018 5:09:22 PM

mtllib ./tube_TV.mtl
o tube TV

g tube TV
v -1.882 0.8 -10.241
v -1.882 0.8 -10.541
v -1.882 1.6 -10.241
v -1.882 1.6 -10.541
v -1.627337 1.11803 -10.89035
v -1.136663 1.11803 -10.89035
v -1.627337 1.475936 -10.89035
v -1.136663 1.475936 -10.89035
v -0.882 0.8 -10.541
v -0.882 0.8 -10.241
v -0.882 1.6 -10.541
v -0.882 1.6 -10.241
v -0.882 1.6 -10.241
v -1.882 1.6 -10.241
v -0.882 1.6 -10.541
v -1.882 1.6 -10.541
v -0.882 0.8 -10.541
v -1.882 0.8 -10.541
v -0.882 0.8 -10.241
v -1.882 0.8 -10.241
v -1.882 0.8 -10.541
v -0.882 0.8 -10.541
v -1.728863 0.9833223 -10.5411
v -1.035137 0.9833223 -10.5411
v -1.882 1.6 -10.541
v -1.882 0.8 -10.541
v -1.728863 1.544024 -10.5411
v -1.728863 0.9833223 -10.5411
v -0.882 0.8 -10.541
v -0.882 1.6 -10.541
v -1.035137 0.9833223 -10.5411
v -1.035137 1.544024 -10.5411
v -0.882 1.6 -10.541
v -1.882 1.6 -10.541
v -1.035137 1.544024 -10.5411
v -1.728863 1.544024 -10.5411
v -1.728863 0.9833223 -10.5411
v -1.035137 0.9833223 -10.5411
v -1.627337 1.11803 -10.89035
v -1.136663 1.11803 -10.89035
v -1.728863 1.544024 -10.5411
v -1.728863 0.9833223 -10.5411
v -1.627337 1.475936 -10.89035
v -1.627337 1.11803 -10.89035
v -1.035137 0.9833223 -10.5411
v -1.035137 1.544024 -10.5411
v -1.136663 1.11803 -10.89035
v -1.136663 1.475936 -10.89035
v -1.035137 1.544024 -10.5411
v -1.728863 1.544024 -10.5411
v -1.136663 1.475936 -10.89035
v -1.627337 1.475936 -10.89035
v -0.882 0.8 -10.241
v -1.882 0.8 -10.241
v -0.9355924 0.9228197 -10.2409
v -1.828408 0.9228197 -10.2409
v -0.882 1.6 -10.241
v -0.882 0.8 -10.241
v -0.9355924 1.5473 -10.2409
v -0.9355924 0.9228197 -10.2409
v -1.882 0.8 -10.241
v -1.882 1.6 -10.241
v -1.828408 0.9228197 -10.2409
v -1.828408 1.5473 -10.2409
v -1.882 1.6 -10.241
v -0.882 1.6 -10.241
v -1.828408 1.5473 -10.2409
v -0.9355924 1.5473 -10.2409
v -0.9639846 0.9381869 -10.27272
v -1.172992 0.9381869 -10.27272
v -1.120584 1.041589 -10.25347
v -0.9639846 1.086623 -10.27272
v -1.172992 0.9381869 -10.27272
v -1.382 0.9381869 -10.27272
v -1.382 1.041589 -10.25347
v -1.120584 1.041589 -10.25347
v -1.382 1.041589 -10.25347
v -1.382 1.23506 -10.25347
v -1.120584 1.23506 -10.25347
v -1.120584 1.041589 -10.25347
v -1.120584 1.23506 -10.25347
v -0.9639846 1.23506 -10.27272
v -0.9639846 1.086623 -10.27272
v -1.120584 1.041589 -10.25347
v -1.382 0.9381869 -10.27272
v -1.591008 0.9381869 -10.27272
v -1.643415 1.041589 -10.25347
v -1.382 1.041589 -10.25347
v -1.591008 0.9381869 -10.27272
v -1.800015 0.9381869 -10.27272
v -1.800015 1.086623 -10.27272
v -1.643415 1.041589 -10.25347
v -1.800015 1.086623 -10.27272
v -1.800015 1.23506 -10.27272
v -1.643415 1.23506 -10.25347
v -1.643415 1.041589 -10.25347
v -1.643415 1.23506 -10.25347
v -1.382 1.23506 -10.25347
v -1.382 1.041589 -10.25347
v -1.643415 1.041589 -10.25347
v -1.382 1.23506 -10.25347
v -1.643415 1.23506 -10.25347
v -1.643415 1.42853 -10.25347
v -1.382 1.42853 -10.25347
v -1.643415 1.23506 -10.25347
v -1.800015 1.23506 -10.27272
v -1.800015 1.383496 -10.27272
v -1.643415 1.42853 -10.25347
v -1.800015 1.383496 -10.27272
v -1.800015 1.531933 -10.27272
v -1.591008 1.531933 -10.27272
v -1.643415 1.42853 -10.25347
v -1.591008 1.531933 -10.27272
v -1.382 1.531933 -10.27272
v -1.382 1.42853 -10.25347
v -1.643415 1.42853 -10.25347
v -0.9639846 1.23506 -10.27272
v -1.120584 1.23506 -10.25347
v -1.120584 1.42853 -10.25347
v -0.9639846 1.383496 -10.27272
v -1.120584 1.23506 -10.25347
v -1.382 1.23506 -10.25347
v -1.382 1.42853 -10.25347
v -1.120584 1.42853 -10.25347
v -1.382 1.42853 -10.25347
v -1.382 1.531933 -10.27272
v -1.172992 1.531933 -10.27272
v -1.120584 1.42853 -10.25347
v -1.172992 1.531933 -10.27272
v -0.9639846 1.531933 -10.27272
v -0.9639846 1.383496 -10.27272
v -1.120584 1.42853 -10.25347
v -1.828408 0.9228197 -10.2409
v -1.800015 0.9381869 -10.27272
v -1.591008 0.9381869 -10.27272
v -1.382 0.9381869 -10.27272
v -1.172992 0.9381869 -10.27272
v -0.9639846 0.9381869 -10.27272
v -0.9355924 0.9228197 -10.2409
v -0.9355924 0.9228197 -10.2409
v -0.9639846 0.9381869 -10.27272
v -0.9639846 1.086623 -10.27272
v -0.9639846 1.23506 -10.27272
v -0.9639846 1.383496 -10.27272
v -0.9639846 1.531933 -10.27272
v -0.9355924 1.5473 -10.2409
v -1.828408 1.5473 -10.2409
v -1.800015 1.531933 -10.27272
v -1.800015 1.383496 -10.27272
v -1.800015 1.23506 -10.27272
v -1.800015 1.086623 -10.27272
v -1.800015 0.9381869 -10.27272
v -1.828408 0.9228197 -10.2409
v -1.828408 1.5473 -10.2409
v -0.9355924 1.5473 -10.2409
v -0.9639846 1.531933 -10.27272
v -1.172992 1.531933 -10.27272
v -1.382 1.531933 -10.27272
v -1.591008 1.531933 -10.27272
v -1.800015 1.531933 -10.27272

vn -1 0 0
vn -1 0 0
vn -1 0 0
vn -1 0 0
vn 0 0 -1
vn 0 0 -1
vn 0 0 -1
vn 0 0 -1
vn 1 0 0
vn 1 0 0
vn 1 0 0
vn 1 0 0
vn 0 0.9999999 0
vn 0 0.9999999 0
vn 0 0.9999999 0
vn 0 0.9999999 0
vn 0 -0.9999999 0
vn 0 -0.9999999 0
vn 0 -0.9999999 0
vn 0 -0.9999999 0
vn 0 -0.000545578 -0.9999998
vn 0 -0.000545578 -0.9999999
vn 0 -0.0005455779 -0.9999998
vn 0 -0.000545578 -0.9999998
vn -0.0006531178 0 -0.9999998
vn -0.0006531179 0 -0.9999998
vn -0.0006531179 0 -0.9999998
vn -0.0006531178 0 -0.9999998
vn 0.0006531174 0 -0.9999998
vn 0.0006531174 0 -0.9999997
vn 0.0006531174 0 -0.9999997
vn 0.0006531174 0 -0.9999998
vn 0 0.001786765 -0.9999985
vn 0 0.001786765 -0.9999983
vn 0 0.001786765 -0.9999983
vn 0 0.001786765 -0.9999985
vn 0 -0.9330034 -0.3598675
vn 0 -0.9330034 -0.3598675
vn 0 -0.9330034 -0.3598675
vn 0 -0.9330034 -0.3598675
vn -0.9602489 0 -0.2791449
vn -0.960249 0 -0.2791449
vn -0.9602491 0 -0.2791449
vn -0.9602489 0 -0.2791449
vn 0.9602489 0 -0.2791449
vn 0.960249 0 -0.2791449
vn 0.9602491 0 -0.2791449
vn 0.9602489 0 -0.2791449
vn 0 0.9815215 -0.191352
vn 0 0.9815214 -0.1913519
vn 0 0.9815215 -0.191352
vn 0 0.9815215 -0.191352
vn 0 -0.0008143368 0.9999997
vn 0 -0.0008143368 0.9999997
vn 0 -0.0008143368 0.9999997
vn 0 -0.0008143368 0.9999997
vn 0.001866241 0 0.9999983
vn 0.001866241 0 0.9999983
vn 0.001866241 0 0.9999983
vn 0.001866241 0 0.9999983
vn -0.001866245 0 0.9999982
vn -0.001866245 0 0.9999983
vn -0.001866245 0 0.9999982
vn -0.001866245 0 0.9999982
vn 0 0.001897839 0.9999982
vn 0 0.001897839 0.9999983
vn 0 0.001897839 0.9999983
vn 0 0.001897839 0.9999982
vn 0.06330866 -0.08914248 0.9940049
vn 0 -0.1829945 0.9831139
vn 0.06330866 -0.08914248 0.9940049
vn 0.121988 0 0.9925316
vn 0 -0.1829945 0.9831139
vn 0 -0.1829945 0.983114
vn 0 -0.1829945 0.9831139
vn 0 -0.1829945 0.983114
vn 0 0 1
vn 0 0 1
vn 0 0 1
vn 0 0 1
vn 0.121988 0 0.9925315
vn 0.121988 0 0.9925315
vn 0.121988 0 0.9925315
vn 0.121988 0 0.9925316
vn 0 -0.1829945 0.9831139
vn 0 -0.1829945 0.983114
vn 0 -0.1829945 0.9831139
vn 0 -0.1829945 0.983114
vn -0.06330863 -0.08914247 0.9940049
vn 0 0 1
vn -0.06330863 -0.08914247 0.9940049
vn -0.1945326 -0.2739139 0.9418749
vn -0.1219879 0 0.9925315
vn -0.1219879 0 0.9925315
vn -0.1219879 0 0.9925317
vn -0.1219879 0 0.9925315
vn 0 0 1
vn 0 0 1
vn 0 0 1
vn 0 0 1
vn 0 0 1
vn 0 0 1
vn 0 0 1
vn 0 0 1
vn -0.1219879 0 0.9925316
vn -0.1219879 0 0.9925317
vn -0.1219879 0 0.9925316
vn -0.1219879 0 0.9925316
vn -0.1219879 0 0.9925315
vn -0.06330863 0.0891425 0.9940049
vn 0 0.1829945 0.9831139
vn -0.06330863 0.0891425 0.9940049
vn 0 0.1829945 0.9831139
vn 0 0.1829946 0.983114
vn 0 0.1829945 0.9831139
vn 0 0.1829945 0.9831139
vn 0.121988 0 0.9925316
vn 0.121988 0 0.9925315
vn 0.121988 0 0.9925316
vn 0.121988 0 0.9925317
vn 0 0 1
vn 0 0 1
vn 0 0 1
vn 0 0 1
vn 0 0.1829945 0.9831139
vn 0 0.1829945 0.9831139
vn 0 0.1829946 0.983114
vn 0 0.1829945 0.9831139
vn 0.06330867 0.08914251 0.9940048
vn 0 0 1
vn 0.06330867 0.08914251 0.9940048
vn 0.1945328 0.2739141 0.9418747
vn 0 0.900464 0.4349304
vn 0 0.9004641 0.4349305
vn 0 0.9004641 0.4349304
vn 0 0.900464 0.4349304
vn 0 0.9004641 0.4349304
vn 0 0.9004641 0.4349304
vn 0 0.9004641 0.4349305
vn -0.7461081 0 0.6658248
vn -0.7461081 0 0.6658248
vn -0.7461082 0 0.6658249
vn -0.7461081 0 0.6658248
vn -0.7461081 0 0.6658247
vn -0.7461082 0 0.6658248
vn -0.7461081 0 0.6658248
vn 0.7461081 0 0.6658248
vn 0.7461081 0 0.6658248
vn 0.746108 0 0.6658248
vn 0.7461081 0 0.6658248
vn 0.7461082 0 0.6658249
vn 0.7461081 0 0.6658247
vn 0.7461081 0 0.6658248
vn 0 -0.9004644 0.4349298
vn 0 -0.9004644 0.4349297
vn 0 -0.9004644 0.4349298
vn 0 -0.9004644 0.4349298
vn 0 -0.9004644 0.4349298
vn 0 -0.9004645 0.4349298
vn 0 -0.9004645 0.4349298

vt -0.8000002 0
vt -1.1 0
vt -0.8000002 0.8
vt -1.1 0.8
vt 1.745337 0.3180298
vt 1.254663 0.3180298
vt 1.745337 0.6759365
vt 1.254663 0.6759365
vt 1.1 0
vt 0.8000002 0
vt 1.1 0.8
vt 0.8000002 0.8
vt 1 -0.8000002
vt 2 -0.8000002
vt 1 -1.1
vt 2 -1.1
vt -1 -1.1
vt -2 -1.1
vt -1 -0.8000002
vt -2 -0.8000002
vt 2 0.000600136
vt 1 0.000600136
vt 1.846863 0.1839224
vt 1.153137 0.1839224
vt 1.999281 0.8
vt 1.999281 0
vt 1.846144 0.7440237
vt 1.846144 0.1833223
vt 1.000718 0
vt 1.000718 0.8
vt 1.153855 0.1833223
vt 1.153855 0.7440237
vt 1 0.7980332
vt 2 0.7980332
vt 1.153137 0.7420568
vt 1.846863 0.7420568
vt -1.846863 -1.092369
vt -1.153137 -1.092369
vt -1.745337 -1.466695
vt -1.254663 -1.466695
vt -0.5408279 0.7440237
vt -0.5408279 0.1833223
vt -0.9045324 0.6759365
vt -0.9045324 0.3180298
vt 1.378263 0.1833223
vt 1.378263 0.7440237
vt 1.741967 0.3180298
vt 1.741967 0.6759365
vt 1.153137 -0.9374018
vt 1.846863 -0.9374018
vt 1.254663 -1.293224
vt 1.745337 -1.293224
vt -1 -0.0006514696
vt -2 -0.0006514696
vt -1.053592 0.1221682
vt -1.946408 0.1221682
vt -0.9985053 0.8
vt -0.9985053 0
vt -1.052098 0.7472998
vt -1.052098 0.1228197
vt -2.00149 0
vt -2.00149 0.8
vt -1.947897 0.1228197
vt -1.947897 0.7472998
vt -2 0.8015168
vt -1 0.8015168
vt -1.946408 0.7488165
vt -1.053592 0.7488165
vt -1.081985 0.1381868
vt -1.290992 0.1381868
vt -1.238585 0.2415891
vt -1.081985 0.2866233
vt -1.290992 0.1381868
vt -1.5 0.1381868
vt -1.5 0.2415891
vt -1.238585 0.2415891
vt -1.5 0.2415891
vt -1.5 0.4350598
vt -1.238585 0.4350598
vt -1.238585 0.2415891
vt -1.238585 0.4350598
vt -1.081985 0.4350597
vt -1.081985 0.2866233
vt -1.238585 0.2415891
vt -1.5 0.1381868
vt -1.709008 0.1381868
vt -1.761415 0.2415891
vt -1.5 0.2415891
vt -1.709008 0.1381868
vt -1.918015 0.1381868
vt -1.918015 0.2866233
vt -1.761415 0.2415891
vt -1.918015 0.2866233
vt -1.918015 0.4350597
vt -1.761415 0.4350598
vt -1.761415 0.2415891
vt -1.761415 0.4350598
vt -1.5 0.4350598
vt -1.5 0.2415891
vt -1.761415 0.2415891
vt -1.5 0.4350598
vt -1.761415 0.4350598
vt -1.761415 0.6285304
vt -1.5 0.6285304
vt -1.761415 0.4350598
vt -1.918015 0.4350597
vt -1.918015 0.5834962
vt -1.761415 0.6285304
vt -1.918015 0.5834962
vt -1.918015 0.7319326
vt -1.709008 0.7319326
vt -1.761415 0.6285304
vt -1.709008 0.7319326
vt -1.5 0.7319326
vt -1.5 0.6285304
vt -1.761415 0.6285304
vt -1.081985 0.4350597
vt -1.238585 0.4350598
vt -1.238585 0.6285304
vt -1.081985 0.5834962
vt -1.238585 0.4350598
vt -1.5 0.4350598
vt -1.5 0.6285304
vt -1.238585 0.6285304
vt -1.5 0.6285304
vt -1.5 0.7319326
vt -1.290992 0.7319326
vt -1.238585 0.6285304
vt -1.290992 0.7319326
vt -1.081985 0.7319326
vt -1.081985 0.5834962
vt -1.238585 0.6285304
vt 1.946408 -0.7736993
vt 1.918015 -0.8090318
vt 1.709008 -0.8090318
vt 1.5 -0.8090318
vt 1.290992 -0.8090318
vt 1.081985 -0.8090318
vt 1.053592 -0.7736993
vt -1.29832 0.1228197
vt -1.340962 0.1381868
vt -1.340962 0.2866233
vt -1.340962 0.4350597
vt -1.340962 0.5834962
vt -1.340962 0.7319326
vt -1.29832 0.7472998
vt -0.6991547 0.7472998
vt -0.6565125 0.7319326
vt -0.6565125 0.5834962
vt -0.6565125 0.4350597
vt -0.6565125 0.2866233
vt -0.6565125 0.1381868
vt -0.6991547 0.1228197
vt -1.946408 -0.3952587
vt -1.053592 -0.3952587
vt -1.081985 -0.4305912
vt -1.290992 -0.4305912
vt -1.5 -0.4305912
vt -1.709008 -0.4305912
vt -1.918015 -0.4305912

g tube TV_0
usemtl Default_Prototype
f 3/3/3 4/4/4 2/2/2 1/1/1
f 7/7/7 8/8/8 6/6/6 5/5/5
f 11/11/11 12/12/12 10/10/10 9/9/9
f 15/15/15 16/16/16 14/14/14 13/13/13
f 19/19/19 20/20/20 18/18/18 17/17/17
f 23/23/23 24/24/24 22/22/22 21/21/21
f 27/27/27 28/28/28 26/26/26 25/25/25
f 31/31/31 32/32/32 30/30/30 29/29/29
f 35/35/35 36/36/36 34/34/34 33/33/33
f 39/39/39 40/40/40 38/38/38 37/37/37
f 43/43/43 44/44/44 42/42/42 41/41/41
f 47/47/47 48/48/48 46/46/46 45/45/45
f 51/51/51 52/52/52 50/50/50 49/49/49
f 55/55/55 56/56/56 54/54/54 53/53/53
f 59/59/59 60/60/60 58/58/58 57/57/57
f 63/63/63 64/64/64 62/62/62 61/61/61
f 67/67/67 68/68/68 66/66/66 65/65/65
f 72/72/72 71/71/71 70/70/70 69/69/69
f 76/76/76 75/75/75 74/74/74 73/73/73
f 79/79/79 78/78/78 77/77/77 80/80/80
f 82/82/82 81/81/81 84/84/84 83/83/83
f 88/88/88 87/87/87 86/86/86 85/85/85
f 92/92/92 91/91/91 90/90/90 89/89/89
f 95/95/95 94/94/94 93/93/93 96/96/96
f 98/98/98 97/97/97 100/100/100 99/99/99
f 104/104/104 103/103/103 102/102/102 101/101/101
f 108/108/108 107/107/107 106/106/106 105/105/105
f 111/111/111 110/110/110 109/109/109 112/112/112
f 114/114/114 113/113/113 116/116/116 115/115/115
f 120/120/120 119/119/119 118/118/118 117/117/117
f 124/124/124 123/123/123 122/122/122 121/121/121
f 127/127/127 126/126/126 125/125/125 128/128/128
f 130/130/130 129/129/129 132/132/132 131/131/131

g tube TV_1
usemtl Default_Prototype
f 135/135/135 134/134/134 133/133/133
f 136/136/136 135/135/135 133/133/133
f 139/139/139 138/138/138 137/137/137
f 139/139/139 137/137/137 136/136/136
f 136/136/136 133/133/133 139/139/139
f 142/142/142 141/141/141 140/140/140
f 143/143/143 142/142/142 140/140/140
f 140/140/140 146/146/146 143/143/143
f 146/146/146 144/144/144 143/143/143
f 146/146/146 145/145/145 144/144/144
f 149/149/149 148/148/148 147/147/147
f 150/150/150 149/149/149 147/147/147
f 150/150/150 147/147/147 153/153/153
f 153/153/153 151/151/151 150/150/150
f 153/153/153 152/152/152 151/151/151
f 155/155/155 154/154/154 158/158/158
f 158/158/158 157/157/157 155/155/155
f 157/157/157 156/156/156 155/155/155
f 154/154/154 159/159/159 158/158/158
f 154/154/154 160/160/160 159/159/159

